<svg width="52" height="52" viewBox="0 0 52 52" fill="none" xmlns="http://www.w3.org/2000/svg">
<path fill-rule="evenodd" clip-rule="evenodd" d="M5 26C5 37.598 14.402 47 26 47C37.598 47 47 37.598 47 26C47 14.402 37.598 5 26 5C14.402 5 5 14.402 5 26ZM26 51.6667C11.8247 51.6667 0.333335 40.1753 0.333335 26C0.333334 11.8247 11.8247 0.333335 26 0.333335C40.1753 0.333334 51.6667 11.8247 51.6667 26C51.6667 40.1753 40.1753 51.6667 26 51.6667Z" fill="#00C67E"/>
<path fill-rule="evenodd" clip-rule="evenodd" d="M15.0167 27.6499C14.1055 26.7387 14.1055 25.2613 15.0167 24.3501L24.3501 15.0167C25.2613 14.1055 26.7387 14.1055 27.6499 15.0167L36.9832 24.3501C37.8945 25.2613 37.8945 26.7387 36.9832 27.6499C36.072 28.5611 34.5946 28.5611 33.6834 27.6499L26 19.9665L18.3166 27.6499C17.4054 28.5611 15.928 28.5611 15.0167 27.6499Z" fill="#00C67E"/>
<path fill-rule="evenodd" clip-rule="evenodd" d="M26 37.6667C24.7113 37.6667 23.6667 36.622 23.6667 35.3333L23.6667 16.6667C23.6667 15.378 24.7113 14.3333 26 14.3333C27.2887 14.3333 28.3333 15.378 28.3333 16.6667L28.3333 35.3333C28.3333 36.622 27.2887 37.6667 26 37.6667Z" fill="#00C67E"/>
</svg>
