<svg width="52" height="52" viewBox="0 0 52 52" fill="none" xmlns="http://www.w3.org/2000/svg">
<path fill-rule="evenodd" clip-rule="evenodd" d="M26 5C14.402 5 5.00001 14.402 5.00001 26C5.00001 37.598 14.402 47 26 47C37.598 47 47 37.598 47 26C47 14.402 37.598 5 26 5ZM0.333344 26C0.333344 11.8247 11.8247 0.333334 26 0.333334C40.1753 0.333334 51.6667 11.8247 51.6667 26C51.6667 40.1753 40.1753 51.6667 26 51.6667C11.8247 51.6667 0.333344 40.1753 0.333344 26Z" fill="#00C67E"/>
<path fill-rule="evenodd" clip-rule="evenodd" d="M17.067 19.4003C17.067 18.1117 18.1117 17.067 19.4004 17.067L32.5997 17.067C33.8883 17.067 34.933 18.1117 34.933 19.4003L34.933 32.5997C34.933 33.8883 33.8883 34.933 32.5997 34.933C31.311 34.933 30.2664 33.8883 30.2664 32.5997L30.2664 21.7337L19.4004 21.7337C18.1117 21.7337 17.067 20.689 17.067 19.4003Z" fill="#00C67E"/>
<path fill-rule="evenodd" clip-rule="evenodd" d="M17.7504 34.2496C16.8392 33.3384 16.8392 31.861 17.7504 30.9497L30.9498 17.7504C31.861 16.8392 33.3384 16.8392 34.2496 17.7504C35.1608 18.6616 35.1608 20.139 34.2496 21.0503L21.0503 34.2496C20.139 35.1608 18.6617 35.1608 17.7504 34.2496Z" fill="#00C67E"/>
</svg>
