<svg width="22" height="22" viewBox="0 0 22 22" fill="none" xmlns="http://www.w3.org/2000/svg">
<circle cx="11" cy="11" r="10" stroke="#7E858D" stroke-width="2"/>
<path d="M12 5C12 4.44772 11.5523 4 11 4C10.4477 4 10 4.44772 10 5H12ZM10 12C10 12.5523 10.4477 13 11 13C11.5523 13 12 12.5523 12 12H10ZM10 5V12H12V5H10Z" fill="#7E858D"/>
<path d="M12 16.3333C12 15.781 11.5523 15.3333 11 15.3333C10.4477 15.3333 10 15.781 10 16.3333L12 16.3333ZM10 17C10 17.5523 10.4477 18 11 18C11.5523 18 12 17.5523 12 17L10 17ZM10 16.3333L10 17L12 17L12 16.3333L10 16.3333Z" fill="#7E858D"/>
</svg>
