<svg width="201" height="46" viewBox="0 0 201 46" fill="none" xmlns="http://www.w3.org/2000/svg">
<path d="M93.879 22.4279C94.6996 23.5034 95.0883 24.8799 95.0883 26.4715C95.0883 28.6654 94.3109 30.3861 92.7128 31.6336C91.1148 32.8811 88.9552 33.4833 86.191 33.4833H76.7322C76.0412 33.4833 75.4797 33.2682 75.0478 32.8811C74.6591 32.4939 74.4431 31.9347 74.4431 31.2464V9.95298C74.4431 9.26471 74.6591 8.70549 75.0478 8.31833C75.4365 7.93118 75.998 7.71609 76.7322 7.71609H85.8455C88.5233 7.71609 90.6397 8.31833 92.1945 9.47979C93.7062 10.6413 94.4836 12.3189 94.4836 14.4268C94.4836 15.8033 94.1381 16.9648 93.4039 17.9542C92.6696 18.9435 91.6762 19.6748 90.4237 20.148C91.8922 20.5782 93.0583 21.3525 93.879 22.4279ZM79.1077 18.5564H85.0681C88.3074 18.5564 89.9486 17.3519 89.9486 14.943C89.9486 13.7385 89.5599 12.8351 88.7393 12.2329C87.9186 11.6306 86.7093 11.3725 85.0681 11.3725H79.0645V18.5564H79.1077ZM89.4303 28.9235C90.2078 28.3213 90.5965 27.3749 90.5965 26.0844C90.5965 24.7939 90.2078 23.8475 89.3871 23.2022C88.6097 22.557 87.3572 22.2559 85.6727 22.2559H79.0645V29.8699H85.6727C87.4004 29.8269 88.6529 29.5257 89.4303 28.9235Z" fill="#0D3B6B"/>
<path d="M99.4506 11.2865C98.9755 10.8563 98.7163 10.2541 98.7163 9.52282C98.7163 8.79153 98.9755 8.18929 99.4506 7.75912C99.9257 7.32895 100.617 7.11386 101.437 7.11386C102.258 7.11386 102.906 7.32895 103.381 7.75912C103.899 8.18929 104.115 8.79153 104.115 9.52282C104.115 10.2541 103.856 10.8563 103.381 11.2865C102.906 11.7597 102.215 11.9748 101.394 11.9748C100.574 11.9748 99.9257 11.7597 99.4506 11.2865Z" fill="#0077FF"/>
<path d="M125.322 15.8034C125.754 16.1905 125.926 16.7067 125.926 17.395V31.8487C125.926 34.6449 125.149 36.7527 123.594 38.2153C122.039 39.6348 119.707 40.3661 116.64 40.3661C113.963 40.3661 111.76 39.8499 109.946 38.8605C109.039 38.3443 108.607 37.6991 108.607 36.9248C108.607 36.4086 108.736 35.9784 108.996 35.6342C109.255 35.3331 109.6 35.1611 109.989 35.1611C110.205 35.1611 110.464 35.2041 110.81 35.3331C111.112 35.4622 111.457 35.5912 111.803 35.7203C112.667 36.0644 113.487 36.3655 114.178 36.5806C114.87 36.7957 115.69 36.8817 116.597 36.8817C119.793 36.8817 121.391 35.3331 121.391 32.1929V29.87C120.873 30.8594 120.052 31.6337 119.059 32.1929C118.022 32.7521 116.856 33.0102 115.517 33.0102C113.963 33.0102 112.58 32.623 111.371 31.8918C110.162 31.1605 109.212 30.085 108.52 28.7515C107.829 27.418 107.484 25.8694 107.484 24.1057C107.484 22.342 107.829 20.7934 108.477 19.4598C109.168 18.1263 110.119 17.0509 111.328 16.3196C112.537 15.5883 113.963 15.2011 115.517 15.2011C116.856 15.2011 118.022 15.4592 119.059 16.0185C120.096 16.5777 120.873 17.352 121.391 18.3414V17.395C121.391 16.7498 121.607 16.2336 121.996 15.8464C122.428 15.4592 122.946 15.2442 123.637 15.2442C124.328 15.2442 124.89 15.4162 125.322 15.8034ZM120.139 28.0202C120.959 27.0738 121.348 25.7833 121.348 24.1057C121.348 22.428 120.916 21.0945 120.139 20.1481C119.318 19.2017 118.195 18.7285 116.727 18.7285C115.301 18.7285 114.135 19.2017 113.315 20.1481C112.494 21.0945 112.062 22.428 112.062 24.1057C112.062 25.7833 112.494 27.0738 113.315 28.0202C114.135 28.9666 115.301 29.4398 116.727 29.4398C118.195 29.4398 119.318 28.9666 120.139 28.0202Z" fill="#0D3B6B"/>
<path d="M145.924 17.0077C146.96 18.2122 147.522 20.0619 147.522 22.5139V31.5044C147.522 32.1927 147.306 32.7089 146.917 33.0961C146.528 33.4832 145.967 33.6983 145.233 33.6983C144.542 33.6983 143.98 33.4832 143.548 33.0961C143.116 32.7089 142.943 32.1497 142.943 31.5044V22.772C142.943 21.3954 142.684 20.363 142.166 19.7178C141.648 19.0725 140.827 18.7714 139.704 18.7714C138.365 18.7714 137.329 19.2016 136.508 20.0189C135.731 20.8362 135.299 21.9547 135.299 23.3312V31.5044C135.299 32.1927 135.083 32.7089 134.694 33.0961C134.262 33.4832 133.701 33.6983 133.01 33.6983C132.319 33.6983 131.757 33.4832 131.325 33.0961C130.936 32.7089 130.72 32.1497 130.72 31.5044V17.3518C130.72 16.7066 130.936 16.1904 131.325 15.8032C131.757 15.4161 132.319 15.201 133.01 15.201C133.657 15.201 134.176 15.373 134.564 15.7602C134.953 16.1474 135.169 16.6205 135.169 17.2228V18.2122C135.774 17.2228 136.594 16.4485 137.631 15.8893C138.668 15.373 139.834 15.0719 141.129 15.0719C143.246 15.158 144.844 15.7602 145.924 17.0077Z" fill="#0D3B6B"/>
<path d="M167.39 29.0526C167.649 29.3538 167.779 29.7839 167.779 30.3431C167.779 31.1175 167.347 31.7197 166.44 32.2359C165.619 32.7091 164.669 33.0532 163.632 33.3543C162.596 33.6555 161.559 33.7845 160.609 33.7845C157.715 33.7845 155.426 32.9672 153.742 31.2895C152.057 29.6119 151.193 27.375 151.193 24.4928C151.193 22.6861 151.539 21.0515 152.273 19.6319C153.007 18.2123 154.044 17.1369 155.383 16.3626C156.722 15.5883 158.233 15.2011 159.918 15.2011C161.516 15.2011 162.941 15.5453 164.151 16.2766C165.36 16.9648 166.267 17.9972 166.958 19.2878C167.606 20.5783 167.951 22.0839 167.951 23.8476C167.951 24.88 167.476 25.4392 166.569 25.4392H155.728C155.858 27.1169 156.333 28.3644 157.154 29.1387C157.974 29.913 159.14 30.3431 160.695 30.3431C161.473 30.3431 162.164 30.2571 162.768 30.042C163.373 29.8269 164.064 29.5688 164.798 29.2247C165.533 28.8375 166.051 28.6225 166.396 28.6225C166.785 28.5794 167.131 28.7515 167.39 29.0526ZM157.024 19.5459C156.29 20.3202 155.815 21.4386 155.685 22.9012H163.978C163.935 21.3956 163.546 20.2772 162.898 19.5028C162.207 18.7285 161.257 18.3414 160.047 18.3414C158.752 18.3844 157.758 18.7716 157.024 19.5459Z" fill="#0D3B6B"/>
<path d="M171.666 32.1928C170.888 31.7196 170.5 31.0744 170.5 30.214C170.5 29.7408 170.629 29.3107 170.888 29.0096C171.147 28.7084 171.493 28.5364 171.882 28.5364C172.314 28.5364 172.875 28.7515 173.609 29.1386C174.387 29.5258 175.121 29.7839 175.769 29.999C176.417 30.214 177.237 30.3001 178.231 30.3001C179.267 30.3001 180.045 30.128 180.649 29.7839C181.211 29.4397 181.513 28.9665 181.513 28.3643C181.513 27.9341 181.384 27.633 181.168 27.3749C180.952 27.1168 180.52 26.9017 179.915 26.6866C179.31 26.4716 178.403 26.2565 177.194 25.9553C175.035 25.5252 173.436 24.8799 172.529 24.1056C171.579 23.2883 171.104 22.2129 171.104 20.7933C171.104 19.7179 171.407 18.7715 172.054 17.8681C172.702 17.0078 173.566 16.3195 174.689 15.8463C175.812 15.3732 177.065 15.1151 178.49 15.1151C179.526 15.1151 180.52 15.2441 181.47 15.5022C182.42 15.7603 183.284 16.1475 184.061 16.6206C184.839 17.0938 185.228 17.7391 185.228 18.5564C185.228 19.0296 185.098 19.4598 184.839 19.7609C184.58 20.105 184.234 20.2341 183.845 20.2341C183.586 20.2341 183.327 20.1911 183.068 20.062C182.809 19.933 182.507 19.8039 182.075 19.5888C181.384 19.2017 180.736 18.9436 180.261 18.7715C179.742 18.5994 179.094 18.5134 178.36 18.5134C177.453 18.5134 176.719 18.6855 176.201 19.0726C175.682 19.4598 175.423 19.933 175.423 20.5782C175.423 21.1805 175.682 21.6536 176.244 21.9548C176.762 22.2559 177.842 22.6 179.354 22.9011C180.995 23.2453 182.291 23.6324 183.198 24.0626C184.148 24.4928 184.796 25.052 185.184 25.6972C185.573 26.3425 185.789 27.2028 185.789 28.2353C185.789 29.9129 185.098 31.2034 183.716 32.2358C182.334 33.2252 180.477 33.7414 178.187 33.7414C175.466 33.7845 173.307 33.2683 171.666 32.1928Z" fill="#0D3B6B"/>
<path d="M200.431 31.9347C200.431 32.537 200.172 32.9671 199.696 33.2683C199.221 33.5694 198.53 33.6984 197.666 33.6554L196.673 33.5694C192.57 33.2683 190.497 31.0744 190.497 26.9878V19.0296H188.683C188.035 19.0296 187.517 18.9005 187.171 18.5994C186.826 18.2983 186.653 17.8681 186.653 17.3089C186.653 16.7497 186.826 16.3195 187.171 16.0184C187.517 15.7173 188.035 15.5882 188.683 15.5882H190.497V12.2329C190.497 11.5876 190.713 11.0714 191.101 10.6413C191.533 10.2541 192.095 10.039 192.786 10.039C193.477 10.039 194.038 10.2541 194.427 10.6413C194.859 11.0284 195.032 11.5446 195.032 12.2329V15.5882H198.142C198.789 15.5882 199.308 15.7173 199.653 16.0184C199.999 16.3195 200.172 16.7497 200.172 17.3089C200.172 17.8681 199.999 18.2983 199.653 18.5994C199.308 18.9005 198.789 19.0296 198.142 19.0296H195.032V27.3319C195.032 29.1386 195.852 30.085 197.537 30.214L198.53 30.3001C199.826 30.3861 200.431 30.9453 200.431 31.9347Z" fill="#0D3B6B"/>
<path d="M54.7049 25.095C54.0139 24.1056 52.5022 24.1056 51.8543 25.138L51.1633 26.2134C50.645 26.9877 50.8609 28.0201 51.5952 28.5794C53.15 29.6548 53.9275 31.7196 53.15 33.6554C52.4158 35.5481 50.429 36.6666 48.4422 36.3224C45.9804 35.9353 44.8142 33.6124 44.9006 31.2034L45.9804 16.9217C46.4555 10.4692 42.0932 4.66188 35.7441 3.32836L22.2686 0.403195C12.3347 -1.70464 2.27127 4.66189 0.327688 14.5988C-1.52952 24.2346 4.68996 33.6124 14.3647 35.6772C19.1157 36.6666 23.7803 35.7202 27.6243 33.3973C29.3519 39.2476 34.1029 44.0225 40.4087 45.5711C40.4519 45.5711 40.4951 45.6141 40.5383 45.6141C40.5815 45.6141 40.6679 45.6571 40.7111 45.6571C40.7975 45.6571 40.8407 45.7002 40.927 45.7002C48.1399 47.2488 55.2664 42.646 56.8213 35.4191C57.5987 31.6766 56.7349 27.9771 54.7049 25.095ZM35.4418 23.8905C34.2757 23.6324 33.5414 22.514 33.7574 21.3525C34.0165 20.191 35.1395 19.4598 36.3056 19.6748C37.4718 19.9329 38.206 21.0514 37.9901 22.2128C37.7309 23.3743 36.608 24.1056 35.4418 23.8905Z" fill="#0D3B6B"/>
<path d="M99.7958 33.1391C99.3639 32.752 99.1479 32.2358 99.1479 31.5045V17.3949C99.1479 16.7066 99.3639 16.1474 99.7958 15.8032C100.228 15.4161 100.789 15.244 101.437 15.244C102.085 15.244 102.646 15.4161 103.078 15.8032C103.51 16.1904 103.726 16.7066 103.726 17.3949V31.5045C103.726 32.1927 103.51 32.752 103.078 33.1391C102.646 33.5263 102.085 33.6983 101.437 33.6983C100.746 33.6983 100.228 33.5263 99.7958 33.1391Z" fill="#0D3B6B"/>
</svg>
