<svg width="64" height="64" viewBox="0 0 64 64" fill="none" xmlns="http://www.w3.org/2000/svg">
<path fill-rule="evenodd" clip-rule="evenodd" d="M7.99999 32C7.99999 45.2548 18.7452 56 32 56C45.2548 56 56 45.2548 56 32C56 18.7452 45.2548 8 32 8C18.7452 8 7.99999 18.7452 7.99999 32ZM32 61.3333C15.7996 61.3333 2.66666 48.2003 2.66666 32C2.66665 15.7996 15.7996 2.66666 32 2.66666C48.2003 2.66666 61.3333 15.7996 61.3333 32C61.3333 48.2003 48.2003 61.3333 32 61.3333Z" fill="white"/>
<path fill-rule="evenodd" clip-rule="evenodd" d="M19.4477 33.8856C18.4063 32.8442 18.4063 31.1558 19.4477 30.1144L30.1144 19.4477C31.1558 18.4063 32.8442 18.4063 33.8856 19.4477L44.5523 30.1144C45.5937 31.1558 45.5937 32.8442 44.5523 33.8856C43.5109 34.927 41.8224 34.927 40.781 33.8856L32 25.1046L23.2189 33.8856C22.1775 34.927 20.4891 34.927 19.4477 33.8856Z" fill="white"/>
<path fill-rule="evenodd" clip-rule="evenodd" d="M32 45.3333C30.5272 45.3333 29.3333 44.1394 29.3333 42.6667L29.3333 21.3333C29.3333 19.8606 30.5272 18.6667 32 18.6667C33.4727 18.6667 34.6666 19.8606 34.6666 21.3333L34.6666 42.6667C34.6666 44.1394 33.4727 45.3333 32 45.3333Z" fill="white"/>
</svg>
