<svg width="44" height="44" viewBox="0 0 44 44" fill="none" xmlns="http://www.w3.org/2000/svg">
<path fill-rule="evenodd" clip-rule="evenodd" d="M22 4C12.0589 4 4 12.0589 4 22C4 31.9411 12.0589 40 22 40C31.9411 40 40 31.9411 40 22C40 12.0589 31.9411 4 22 4ZM0 22C0 9.84974 9.84974 0 22 0C34.1503 0 44 9.84974 44 22C44 34.1503 34.1503 44 22 44C9.84974 44 0 34.1503 0 22Z" fill="#00C67E"/>
<path fill-rule="evenodd" clip-rule="evenodd" d="M14.3431 16.3431C14.3431 15.2386 15.2386 14.3431 16.3431 14.3431L27.6568 14.3431C28.7614 14.3431 29.6568 15.2386 29.6568 16.3431L29.6568 27.6568C29.6568 28.7614 28.7614 29.6568 27.6568 29.6568C26.5523 29.6568 25.6568 28.7614 25.6568 27.6568L25.6568 18.3431L16.3431 18.3431C15.2386 18.3431 14.3431 17.4477 14.3431 16.3431Z" fill="#00C67E"/>
<path fill-rule="evenodd" clip-rule="evenodd" d="M14.9289 29.0711C14.1479 28.29 14.1479 27.0237 14.9289 26.2426L26.2426 14.9289C27.0237 14.1479 28.29 14.1479 29.0711 14.9289C29.8521 15.71 29.8521 16.9763 29.0711 17.7574L17.7574 29.0711C16.9763 29.8521 15.71 29.8521 14.9289 29.0711Z" fill="#00C67E"/>
</svg>
