<svg width="24" height="34" viewBox="0 0 24 34" fill="none" xmlns="http://www.w3.org/2000/svg">
<path fill-rule="evenodd" clip-rule="evenodd" d="M12 0.5C12.8284 0.5 13.5 1.17157 13.5 2V4.3255C18.362 4.92888 22.125 9.07528 22.125 14.1006V17.5822C22.125 20.2405 22.6962 22.8536 23.7842 25.25C24.3861 26.5756 23.4948 28.25 22.039 28.25H17.953C17.8528 29.0455 17.5944 29.8102 17.1962 30.5C16.9362 30.9503 16.6167 31.3686 16.2426 31.7426C15.1174 32.8679 13.5913 33.5 12 33.5C10.4087 33.5 8.88258 32.8679 7.75736 31.7426C7.38333 31.3686 7.06379 30.9503 6.80383 30.5C6.40562 29.8102 6.14724 29.0455 6.04703 28.25H1.961C0.505158 28.25 -0.386101 26.5756 0.215771 25.25C1.30382 22.8536 1.875 20.2405 1.875 17.5822V14.1006C1.875 9.07529 5.63804 4.92888 10.5 4.3255V2C10.5 1.17157 11.1716 0.5 12 0.5ZM9.26692 28.25C9.39594 28.7201 9.64525 29.1533 9.99598 29.504C10.5275 30.0355 11.2483 30.3341 12 30.3341C12.7517 30.3341 13.4725 30.0355 14.004 29.504C14.3547 29.1533 14.6041 28.7201 14.7331 28.25H9.26692ZM11.7256 7.25H12H12.2744C16.0579 7.25 19.125 10.3171 19.125 14.1006V17.5822C19.125 20.2176 19.6082 22.8148 20.5355 25.25H3.4645C4.39176 22.8148 4.875 20.2176 4.875 17.5822V14.1006C4.875 10.3171 7.94211 7.25 11.7256 7.25Z" fill="#0D3B6B"/>
</svg>
