<svg width="48" height="48" viewBox="0 0 48 48" fill="none" xmlns="http://www.w3.org/2000/svg">
<circle cx="24" cy="24" r="24" fill="#CCE4FF"/>
<path fill-rule="evenodd" clip-rule="evenodd" d="M16.5858 13.5858C16.9609 13.2107 17.4696 13 18 13H30C30.5304 13 31.0391 13.2107 31.4142 13.5858C31.7893 13.9609 32 14.4696 32 15V34C32 34.3746 31.7907 34.7178 31.4576 34.8892C31.1245 35.0606 30.7236 35.0315 30.4188 34.8137L27.5 32.7289L24.5812 34.8137C24.2335 35.0621 23.7665 35.0621 23.4188 34.8137L20.5 32.7289L17.5812 34.8137C17.2764 35.0315 16.8755 35.0606 16.5424 34.8892C16.2093 34.7178 16 34.3746 16 34V15C16 14.4696 16.2107 13.9609 16.5858 13.5858ZM30 15H18L18 32.0568L19.9188 30.6863C20.2665 30.4379 20.7335 30.4379 21.0812 30.6863L24 32.7711L26.9188 30.6863C27.2665 30.4379 27.7335 30.4379 28.0812 30.6863L30 32.0568V15Z" fill="#0077FF"/>
<path fill-rule="evenodd" clip-rule="evenodd" d="M28.7071 22.2929C29.0976 22.6834 29.0976 23.3166 28.7071 23.7071L24.7071 27.7071C24.3166 28.0976 23.6834 28.0976 23.2929 27.7071L19.2929 23.7071C18.9024 23.3166 18.9024 22.6834 19.2929 22.2929C19.6834 21.9024 20.3166 21.9024 20.7071 22.2929L24 25.5858L27.2929 22.2929C27.6834 21.9024 28.3166 21.9024 28.7071 22.2929Z" fill="#0077FF"/>
<path fill-rule="evenodd" clip-rule="evenodd" d="M24 18C24.5523 18 25 18.4477 25 19L25 27C25 27.5523 24.5523 28 24 28C23.4477 28 23 27.5523 23 27L23 19C23 18.4477 23.4477 18 24 18Z" fill="#0077FF"/>
</svg>
