<svg width="20" height="20" viewBox="0 0 20 20" fill="none" xmlns="http://www.w3.org/2000/svg">
<path fill-rule="evenodd" clip-rule="evenodd" d="M11.4142 19.4142C10.6332 20.1953 9.36683 20.1953 8.58579 19.4142L0.585788 11.4142C-0.195261 10.6332 -0.195261 9.36683 0.585788 8.58579L8.58579 0.585787C9.36684 -0.195263 10.6332 -0.195263 11.4142 0.585787C12.1953 1.36683 12.1953 2.63317 11.4142 3.41421L4.82843 10L11.4142 16.5858C12.1953 17.3668 12.1953 18.6332 11.4142 19.4142Z" fill="#7E858D"/>
<path fill-rule="evenodd" clip-rule="evenodd" d="M20 10C20 11.1046 19.1046 12 18 12L2 12C0.89543 12 7.8281e-08 11.1046 1.74846e-07 10C2.7141e-07 8.89543 0.89543 8 2 8L18 8C19.1046 8 20 8.89543 20 10Z" fill="#7E858D"/>
</svg>
