<svg width="105" height="24" viewBox="0 0 105 24" fill="none" xmlns="http://www.w3.org/2000/svg">
<path d="M48.9803 11.7015C49.4084 12.2626 49.6112 12.9808 49.6112 13.8112C49.6112 14.9558 49.2056 15.8536 48.3718 16.5044C47.5381 17.1553 46.4114 17.4695 44.9692 17.4695H40.0341C39.6736 17.4695 39.3807 17.3573 39.1553 17.1553C38.9525 16.9533 38.8398 16.6615 38.8398 16.3024V5.19283C38.8398 4.83373 38.9525 4.54196 39.1553 4.33997C39.3581 4.13798 39.6511 4.02576 40.0341 4.02576H44.7889C46.186 4.02576 47.2902 4.33997 48.1014 4.94595C48.8901 5.55193 49.2958 6.42723 49.2958 7.52697C49.2958 8.24517 49.1155 8.85115 48.7324 9.36735C48.3493 9.88356 47.831 10.2651 47.1775 10.512C47.9437 10.7364 48.5521 11.1404 48.9803 11.7015ZM41.2735 9.68156H44.3833C46.0733 9.68156 46.9297 9.05314 46.9297 7.7963C46.9297 7.16787 46.7268 6.69655 46.2987 6.38234C45.8705 6.06813 45.2396 5.93347 44.3833 5.93347H41.251V9.68156H41.2735ZM46.6592 15.0905C47.0649 14.7763 47.2677 14.2825 47.2677 13.6092C47.2677 12.9359 47.0649 12.4421 46.6367 12.1055C46.2311 11.7688 45.5776 11.6117 44.6988 11.6117H41.251V15.5843H44.6988C45.6001 15.5618 46.2536 15.4047 46.6592 15.0905Z" fill="#D5D7DF"/>
<path d="M51.8872 5.88859C51.6394 5.66415 51.5042 5.34994 51.5042 4.96839C51.5042 4.58685 51.6394 4.27264 51.8872 4.0482C52.1351 3.82377 52.4957 3.71155 52.9238 3.71155C53.352 3.71155 53.69 3.82377 53.9379 4.0482C54.2083 4.27264 54.321 4.58685 54.321 4.96839C54.321 5.34994 54.1857 5.66415 53.9379 5.88859C53.69 6.13547 53.3294 6.24768 52.9013 6.24768C52.4731 6.24768 52.1351 6.13547 51.8872 5.88859Z" fill="#D5D7DF"/>
<path d="M65.3853 8.24524C65.6107 8.44724 65.7008 8.71656 65.7008 9.07566V16.6167C65.7008 18.0756 65.2952 19.1753 64.484 19.9384C63.6727 20.679 62.4559 21.0606 60.8559 21.0606C59.4588 21.0606 58.3095 20.7913 57.3631 20.2751C56.8899 20.0057 56.6645 19.6691 56.6645 19.2651C56.6645 18.9958 56.7321 18.7713 56.8673 18.5918C57.0026 18.4347 57.1828 18.3449 57.3856 18.3449C57.4983 18.3449 57.6335 18.3673 57.8138 18.4347C57.9715 18.502 58.1518 18.5693 58.3321 18.6367C58.7828 18.8162 59.2109 18.9733 59.5715 19.0855C59.932 19.1978 60.3602 19.2426 60.8334 19.2426C62.5009 19.2426 63.3347 18.4347 63.3347 16.7963V15.5843C63.0643 16.1005 62.6361 16.5045 62.1179 16.7963C61.577 17.0881 60.9686 17.2227 60.27 17.2227C59.4588 17.2227 58.7377 17.0207 58.1067 16.6392C57.4758 16.2576 56.98 15.6965 56.6195 15.0008C56.2589 14.305 56.0786 13.4971 56.0786 12.5769C56.0786 11.6567 56.2589 10.8487 56.5969 10.153C56.9575 9.4572 57.4532 8.89611 58.0842 8.51457C58.7152 8.13302 59.4588 7.93103 60.27 7.93103C60.9686 7.93103 61.577 8.06569 62.1179 8.35746C62.6587 8.64923 63.0643 9.05321 63.3347 9.56942V9.07566C63.3347 8.739 63.4474 8.46968 63.6502 8.26769C63.8755 8.06569 64.1459 7.95347 64.5065 7.95347C64.867 7.95347 65.16 8.04325 65.3853 8.24524ZM62.6812 14.6192C63.1094 14.1255 63.3122 13.4522 63.3122 12.5769C63.3122 11.7016 63.0868 11.0058 62.6812 10.5121C62.2531 10.0183 61.6672 9.77141 60.901 9.77141C60.1574 9.77141 59.5489 10.0183 59.1208 10.5121C58.6926 11.0058 58.4673 11.7016 58.4673 12.5769C58.4673 13.4522 58.6926 14.1255 59.1208 14.6192C59.5489 15.113 60.1574 15.3599 60.901 15.3599C61.6672 15.3599 62.2531 15.113 62.6812 14.6192Z" fill="#D5D7DF"/>
<path d="M76.1341 8.87361C76.675 9.50204 76.9679 10.4671 76.9679 11.7464V16.4371C76.9679 16.7962 76.8552 17.0656 76.6524 17.2676C76.4496 17.4695 76.1567 17.5818 75.7736 17.5818C75.413 17.5818 75.1201 17.4695 74.8947 17.2676C74.6694 17.0656 74.5793 16.7738 74.5793 16.4371V11.8811C74.5793 11.1629 74.4441 10.6242 74.1737 10.2876C73.9032 9.95091 73.4751 9.7938 72.8892 9.7938C72.1906 9.7938 71.6498 10.0182 71.2217 10.4447C70.816 10.8711 70.5907 11.4546 70.5907 12.1728V16.4371C70.5907 16.7962 70.478 17.0656 70.2752 17.2676C70.0499 17.4695 69.7569 17.5818 69.3964 17.5818C69.0358 17.5818 68.7429 17.4695 68.5175 17.2676C68.3147 17.0656 68.2021 16.7738 68.2021 16.4371V9.05316C68.2021 8.71651 68.3147 8.44718 68.5175 8.24519C68.7429 8.0432 69.0358 7.93098 69.3964 7.93098C69.7344 7.93098 70.0048 8.02075 70.2076 8.22275C70.4104 8.42474 70.5231 8.67162 70.5231 8.98583V9.50204C70.8386 8.98583 71.2667 8.58185 71.8075 8.29008C72.3484 8.02075 72.9568 7.86365 73.6328 7.86365C74.737 7.90853 75.5708 8.22275 76.1341 8.87361Z" fill="#D5D7DF"/>
<path d="M87.3337 15.1579C87.4689 15.315 87.5365 15.5394 87.5365 15.8312C87.5365 16.2352 87.3112 16.5494 86.838 16.8187C86.4098 17.0656 85.9141 17.2452 85.3732 17.4023C84.8324 17.5594 84.2916 17.6267 83.7958 17.6267C82.286 17.6267 81.0917 17.2003 80.2129 16.325C79.334 15.4497 78.8834 14.2826 78.8834 12.7789C78.8834 11.8362 79.0636 10.9834 79.4467 10.2427C79.8298 9.50209 80.3706 8.941 81.0692 8.53701C81.7677 8.13302 82.5564 7.93103 83.4353 7.93103C84.2691 7.93103 85.0127 8.11058 85.6437 8.49212C86.2746 8.85122 86.7478 9.38987 87.1084 10.0632C87.4464 10.7365 87.6267 11.522 87.6267 12.4422C87.6267 12.9809 87.3788 13.2726 86.9056 13.2726H81.2495C81.3171 14.1479 81.5649 14.7988 81.9931 15.2028C82.4212 15.6068 83.0297 15.8312 83.8409 15.8312C84.2465 15.8312 84.6071 15.7863 84.9226 15.6741C85.238 15.5619 85.5986 15.4272 85.9817 15.2477C86.3647 15.0457 86.6352 14.9335 86.8154 14.9335C87.0182 14.911 87.1985 15.0008 87.3337 15.1579ZM81.9255 10.1978C81.5424 10.6018 81.2945 11.1854 81.2269 11.9484H85.5535C85.531 11.1629 85.3282 10.5794 84.9902 10.1754C84.6296 9.77141 84.1339 9.56942 83.5029 9.56942C82.8269 9.59186 82.3086 9.79386 81.9255 10.1978Z" fill="#D5D7DF"/>
<path d="M89.5647 16.7963C89.159 16.5494 88.9562 16.2127 88.9562 15.7638C88.9562 15.517 89.0238 15.2925 89.1591 15.1354C89.2943 14.9783 89.4745 14.8885 89.6773 14.8885C89.9027 14.8885 90.1956 15.0008 90.5787 15.2027C90.9843 15.4047 91.3674 15.5394 91.7054 15.6516C92.0434 15.7638 92.4716 15.8087 92.9899 15.8087C93.5307 15.8087 93.9363 15.719 94.2518 15.5394C94.5448 15.3599 94.7025 15.113 94.7025 14.7988C94.7025 14.5743 94.6349 14.4172 94.5222 14.2826C94.4095 14.1479 94.1842 14.0357 93.8687 13.9235C93.5532 13.8112 93.08 13.699 92.4491 13.5419C91.3223 13.3175 90.4886 12.9808 90.0154 12.5768C89.5196 12.1504 89.2717 11.5893 89.2717 10.8487C89.2717 10.2876 89.4295 9.79382 89.7675 9.3225C90.1055 8.87363 90.5562 8.51453 91.1421 8.26765C91.728 8.02077 92.3815 7.88611 93.1251 7.88611C93.6659 7.88611 94.1842 7.95344 94.68 8.0881C95.1757 8.22276 95.6264 8.42476 96.032 8.67164C96.4376 8.91852 96.6404 9.25517 96.6404 9.6816C96.6404 9.92848 96.5728 10.1529 96.4376 10.31C96.3024 10.4896 96.1222 10.5569 95.9194 10.5569C95.7841 10.5569 95.6489 10.5345 95.5137 10.4671C95.3785 10.3998 95.2208 10.3325 94.9954 10.2203C94.6349 10.0183 94.2969 9.8836 94.049 9.79382C93.7786 9.70405 93.4406 9.65916 93.0575 9.65916C92.5843 9.65916 92.2012 9.74893 91.9308 9.95093C91.6604 10.1529 91.5252 10.3998 91.5252 10.7365C91.5252 11.0507 91.6604 11.2975 91.9533 11.4547C92.2237 11.6118 92.7871 11.7913 93.5758 11.9484C94.4321 12.128 95.1081 12.33 95.5813 12.5544C96.0771 12.7788 96.4151 13.0706 96.6179 13.4073C96.8207 13.7439 96.9334 14.1928 96.9334 14.7314C96.9334 15.6067 96.5728 16.28 95.8517 16.8187C95.1306 17.3349 94.1617 17.6042 92.9674 17.6042C91.5477 17.6267 90.421 17.3573 89.5647 16.7963Z" fill="#D5D7DF"/>
<path d="M104.573 16.6616C104.573 16.9758 104.437 17.2003 104.189 17.3574C103.942 17.5145 103.581 17.5818 103.13 17.5594L102.612 17.5145C100.471 17.3574 99.3896 16.2128 99.3896 14.0806V9.92852H98.4432C98.1052 9.92852 97.8347 9.86119 97.6545 9.70409C97.4742 9.54698 97.3841 9.32254 97.3841 9.03078C97.3841 8.73901 97.4742 8.51457 97.6545 8.35747C97.8347 8.20036 98.1052 8.13303 98.4432 8.13303H99.3896V6.38242C99.3896 6.04577 99.5023 5.77644 99.7051 5.552C99.9304 5.35001 100.223 5.23779 100.584 5.23779C100.944 5.23779 101.237 5.35001 101.44 5.552C101.666 5.754 101.756 6.02332 101.756 6.38242V8.13303H103.378C103.716 8.13303 103.987 8.20036 104.167 8.35747C104.347 8.51457 104.437 8.73901 104.437 9.03078C104.437 9.32254 104.347 9.54698 104.167 9.70409C103.987 9.86119 103.716 9.92852 103.378 9.92852H101.756V14.2602C101.756 15.2028 102.184 15.6966 103.063 15.7639L103.581 15.8088C104.257 15.8537 104.573 16.1454 104.573 16.6616Z" fill="#D5D7DF"/>
<path d="M28.5417 13.093C28.1811 12.5768 27.3924 12.5768 27.0544 13.1155L26.6939 13.6766C26.4235 14.0806 26.5361 14.6192 26.9192 14.911C27.7305 15.4721 28.1361 16.5494 27.7305 17.5593C27.3474 18.5469 26.3108 19.1304 25.2742 18.9508C23.9898 18.7488 23.3813 17.5369 23.4264 16.28L23.9898 8.82874C24.2376 5.46218 21.9617 2.43229 18.6491 1.73653L11.6184 0.210363C6.43551 -0.889378 1.18501 2.43229 0.170968 7.61678C-0.798008 12.6442 2.44693 17.5369 7.49462 18.6142C9.9734 19.1304 12.4071 18.6366 14.4127 17.4247C15.314 20.477 17.7928 22.9683 21.0828 23.7762C21.1054 23.7762 21.1279 23.7987 21.1504 23.7987C21.173 23.7987 21.218 23.8211 21.2406 23.8211C21.2856 23.8211 21.3082 23.8436 21.3532 23.8436C25.1165 24.6515 28.8346 22.2501 29.6459 18.4795C30.0515 16.5269 29.6008 14.5968 28.5417 13.093ZM18.4914 12.4646C17.883 12.33 17.4999 11.7464 17.6125 11.1404C17.7477 10.5345 18.3336 10.1529 18.9421 10.2651C19.5505 10.3998 19.9336 10.9833 19.8209 11.5893C19.6857 12.1953 19.0998 12.5768 18.4914 12.4646Z" fill="#D5D7DF"/>
<path d="M52.0674 17.2899C51.8421 17.0879 51.7294 16.8186 51.7294 16.4371V9.07555C51.7294 8.71645 51.8421 8.42469 52.0674 8.24514C52.2928 8.04314 52.5857 7.95337 52.9237 7.95337C53.2617 7.95337 53.5547 8.04314 53.78 8.24514C54.0054 8.44713 54.118 8.71645 54.118 9.07555V16.4371C54.118 16.7962 54.0054 17.0879 53.78 17.2899C53.5547 17.4919 53.2617 17.5817 52.9237 17.5817C52.5632 17.5817 52.2928 17.4919 52.0674 17.2899Z" fill="#D5D7DF"/>
</svg>
