<svg width="24" height="24" viewBox="0 0 24 24" fill="none" xmlns="http://www.w3.org/2000/svg">
<path fill-rule="evenodd" clip-rule="evenodd" d="M12 3C10.8954 3 10 3.89543 10 5C10 6.10457 10.8954 7 12 7C13.1046 7 14 6.10457 14 5C14 3.89543 13.1046 3 12 3ZM8 5C8 2.79086 9.79086 1 12 1C14.2091 1 16 2.79086 16 5C16 7.20914 14.2091 9 12 9C9.79086 9 8 7.20914 8 5Z" fill="#7E858D"/>
<path fill-rule="evenodd" clip-rule="evenodd" d="M4 8C3.44772 8 3 8.44772 3 9C3 9.55228 3.44772 10 4 10C4.55228 10 5 9.55228 5 9C5 8.44772 4.55228 8 4 8ZM1 9C1 7.34315 2.34315 6 4 6C5.65685 6 7 7.34315 7 9C7 10.6569 5.65685 12 4 12C2.34315 12 1 10.6569 1 9Z" fill="#7E858D"/>
<path fill-rule="evenodd" clip-rule="evenodd" d="M20 8C19.4477 8 19 8.44772 19 9C19 9.55228 19.4477 10 20 10C20.5523 10 21 9.55228 21 9C21 8.44772 20.5523 8 20 8ZM17 9C17 7.34315 18.3431 6 20 6C21.6569 6 23 7.34315 23 9C23 10.6569 21.6569 12 20 12C18.3431 12 17 10.6569 17 9Z" fill="#7E858D"/>
<path fill-rule="evenodd" clip-rule="evenodd" d="M3.69412 13C3.69416 13 3.69408 13 3.69412 13H3.99999C4.55228 13 4.99999 13.4477 4.99999 14C4.99999 14.5523 4.55228 15 3.99999 15H3.69399C3.45727 15 3.2281 15.0839 3.04746 15.2369C2.86689 15.3898 2.7464 15.6018 2.70741 15.8352L2.37441 17.8352C2.35052 17.9785 2.35808 18.1255 2.39666 18.2656C2.43523 18.4056 2.50385 18.5356 2.59773 18.6464C2.69162 18.7572 2.80853 18.8463 2.94032 18.9073C3.07211 18.9684 3.21562 19 3.36087 19H6.99999C7.55228 19 7.99999 19.4477 7.99999 20C7.99999 20.5523 7.55228 21 6.99999 21H3.36112C3.36108 21 3.36116 21 3.36112 21C2.92541 21 2.49479 20.9052 2.09946 20.722C1.70409 20.5388 1.35337 20.2716 1.07171 19.9391C0.790045 19.6067 0.584193 19.2168 0.468471 18.7967C0.352772 18.3767 0.329945 17.9365 0.401574 17.5068L0.734574 15.5068C0.851395 14.8063 1.21297 14.1697 1.75488 13.7107C2.29677 13.2518 2.984 12.9999 3.69412 13Z" fill="#7E858D"/>
<path fill-rule="evenodd" clip-rule="evenodd" d="M19 14C19 13.4477 19.4477 13 20 13H20.3059C20.3059 13 20.3058 13 20.3059 13C21.016 12.9999 21.7032 13.2518 22.2451 13.7107C22.787 14.1697 23.1486 14.806 23.2654 15.5065L23.5984 17.5065C23.5984 17.5066 23.5984 17.5064 23.5984 17.5065C23.67 17.9362 23.6472 18.3767 23.5315 18.7967C23.4158 19.2168 23.2099 19.6067 22.9283 19.9391C22.6466 20.2716 22.2959 20.5388 21.9005 20.722C21.5052 20.9052 21.0747 21 20.639 21C20.639 21 20.639 21 20.639 21H17C16.4477 21 16 20.5523 16 20C16 19.4477 16.4477 19 17 19H20.639C20.7843 19 20.9279 18.9684 21.0597 18.9073C21.1915 18.8463 21.3084 18.7572 21.4023 18.6464C21.4961 18.5356 21.5648 18.4056 21.6033 18.2656C21.6419 18.1255 21.6495 17.9788 21.6256 17.8355L21.2926 15.8355C21.2926 15.8354 21.2926 15.8356 21.2926 15.8355C21.2536 15.6021 21.1331 15.3898 20.9525 15.2369C20.7719 15.0839 20.5428 15 20.3061 15H20C19.4477 15 19 14.5523 19 14Z" fill="#7E858D"/>
<path d="M8.56859 13.6712C8.72932 12.7068 9.5637 12 10.5414 12H13.4586C14.4363 12 15.2707 12.7068 15.4314 13.6712L16.4314 19.6712C16.6346 20.8903 15.6945 22 14.4586 22H9.54138C8.3055 22 7.36542 20.8903 7.56859 19.6712L8.56859 13.6712Z" stroke="#7E858D" stroke-width="2"/>
</svg>
