<svg width="22" height="20" viewBox="0 0 22 20" fill="none" xmlns="http://www.w3.org/2000/svg">
<path fill-rule="evenodd" clip-rule="evenodd" d="M20.3 10.5998L21.8 8.59978H21.76C21.9744 8.31397 22.02 7.93551 21.8796 7.60696C21.7393 7.27842 21.4343 7.0497 21.0796 7.00696C20.7249 6.96423 20.3744 7.11397 20.16 7.39979V7.45978C19.1624 3.88292 16.1741 1.21389 12.5077 0.62503C8.8413 0.0361715 5.16752 1.63521 3.10001 4.71979C2.90173 5.0181 2.87765 5.39954 3.03686 5.72042C3.19607 6.04129 3.51437 6.25286 3.87186 6.27542C4.22935 6.29798 4.57173 6.1281 4.77001 5.82978C6.37408 3.46424 9.18321 2.21602 12.0139 2.611C14.8446 3.00598 17.2047 4.9755 18.1 7.68978C17.6582 7.35841 17.0314 7.44796 16.7 7.88978C16.3686 8.33161 16.4582 8.95841 16.9 9.28979L18.9 10.7898C18.9878 10.8495 19.0817 10.8998 19.18 10.9398C19.2839 10.971 19.3916 10.9878 19.5 10.9898H19.56C19.6906 10.98 19.8189 10.9497 19.94 10.8998C20.0821 10.8297 20.2055 10.7269 20.3 10.5998ZM17.43 13.8298C17.7117 13.3549 18.325 13.1982 18.8 13.4798H18.81C19.2529 13.7732 19.389 14.3617 19.12 14.8198C17.1763 18.0905 13.4687 19.8861 9.69734 19.3831C5.92603 18.8802 2.81857 16.1756 1.80001 12.5098V12.5698C1.58565 12.8556 1.23509 13.0053 0.880392 12.9626C0.525692 12.9199 0.220734 12.6912 0.0803925 12.3626C-0.0599487 12.0341 -0.0143516 11.6556 0.200008 11.3698L1.70001 9.36979C1.77469 9.27406 1.86618 9.19273 1.97001 9.12979L2.07001 9.07979C2.1427 9.04282 2.22007 9.01591 2.30001 8.99979L2.42001 9.00979C2.49972 9.00015 2.5803 9.00015 2.66001 9.00979H2.82001C2.91836 9.0498 3.01221 9.10008 3.10001 9.15979L5.10001 10.6598C5.31218 10.8189 5.45245 11.0558 5.48996 11.3184C5.52746 11.5809 5.45914 11.8476 5.30001 12.0598C5.11115 12.3116 4.81476 12.4598 4.50001 12.4598C4.28364 12.4598 4.0731 12.3896 3.90001 12.2598H3.85001C4.73963 15.0743 7.19931 17.1039 10.1315 17.4428C13.0638 17.7818 15.9217 16.3671 17.43 13.8298Z" fill="#0077FF"/>
</svg>
