<svg width="21" height="22" viewBox="0 0 21 22" fill="none" xmlns="http://www.w3.org/2000/svg">
<path fill-rule="evenodd" clip-rule="evenodd" d="M0.5 5C0.5 4.44772 0.947715 4 1.5 4H19.5C20.0523 4 20.5 4.44772 20.5 5C20.5 5.55228 20.0523 6 19.5 6H1.5C0.947715 6 0.5 5.55228 0.5 5Z" fill="#0077FF"/>
<path fill-rule="evenodd" clip-rule="evenodd" d="M8.5 2C8.23478 2 7.98043 2.10536 7.79289 2.29289C7.60536 2.48043 7.5 2.73478 7.5 3V4H13.5V3C13.5 2.73478 13.3946 2.48043 13.2071 2.29289C13.0196 2.10536 12.7652 2 12.5 2H8.5ZM15.5 4V3C15.5 2.20435 15.1839 1.44129 14.6213 0.87868C14.0587 0.31607 13.2956 0 12.5 0H8.5C7.70435 0 6.94129 0.31607 6.37868 0.87868C5.81607 1.44129 5.5 2.20435 5.5 3V4H3.5C2.94772 4 2.5 4.44772 2.5 5V19C2.5 19.7957 2.81607 20.5587 3.37868 21.1213C3.94129 21.6839 4.70435 22 5.5 22H15.5C16.2957 22 17.0587 21.6839 17.6213 21.1213C18.1839 20.5587 18.5 19.7957 18.5 19V5C18.5 4.44772 18.0523 4 17.5 4H15.5ZM4.5 6V19C4.5 19.2652 4.60536 19.5196 4.79289 19.7071C4.98043 19.8946 5.23478 20 5.5 20H15.5C15.7652 20 16.0196 19.8946 16.2071 19.7071C16.3946 19.5196 16.5 19.2652 16.5 19V6H4.5Z" fill="#0077FF"/>
<path fill-rule="evenodd" clip-rule="evenodd" d="M8.5 9C9.05228 9 9.5 9.44772 9.5 10V16C9.5 16.5523 9.05228 17 8.5 17C7.94772 17 7.5 16.5523 7.5 16V10C7.5 9.44772 7.94772 9 8.5 9Z" fill="#0077FF"/>
<path fill-rule="evenodd" clip-rule="evenodd" d="M12.5 9C13.0523 9 13.5 9.44772 13.5 10V16C13.5 16.5523 13.0523 17 12.5 17C11.9477 17 11.5 16.5523 11.5 16V10C11.5 9.44772 11.9477 9 12.5 9Z" fill="#0077FF"/>
</svg>
