<svg width="24" height="24" viewBox="0 0 24 24" fill="none" xmlns="http://www.w3.org/2000/svg">
<path fill-rule="evenodd" clip-rule="evenodd" d="M5.0625 5H9.4759C9.76131 5.00044 10.0438 5.05767 10.3068 5.16837C10.5698 5.27903 10.8081 5.44089 11.0079 5.64454C11.008 5.64463 11.0078 5.64446 11.0079 5.64454L16.1256 10.849C16.526 11.2584 16.7501 11.8084 16.75 12.3811C16.75 12.3812 16.75 12.3809 16.75 12.3811V20.4375C16.75 22.1032 15.4346 23.5 13.7367 23.5H5.01562C3.31611 23.5 2 22.1039 2 20.4375V8.05664C2.00474 7.24744 2.32832 6.47272 2.90052 5.90052C3.47272 5.32832 4.24744 5.00476 5.05664 5.00002L5.0625 5ZM14.75 12.3807C14.75 12.3311 14.7307 12.2835 14.6962 12.2479C14.696 12.2477 14.6964 12.2481 14.6962 12.2479L9.58027 7.0452C9.56626 7.03092 9.54955 7.01956 9.53111 7.0118C9.51279 7.00409 9.49313 7.00008 9.47325 7H5.0659C4.78395 7.00229 4.51416 7.11531 4.31473 7.31473C4.11531 7.51416 4.00229 7.78395 4 8.0659V20.4375C4 21.0492 4.46983 21.5 5.01562 21.5H13.7367C14.2794 21.5 14.75 21.0499 14.75 20.4375V12.3807Z" fill="#7E858D"/>
<path fill-rule="evenodd" clip-rule="evenodd" d="M9.37499 5C9.92728 5 10.375 5.44772 10.375 6V11.0545C10.377 11.1388 10.4114 11.2192 10.4711 11.2789C10.5308 11.3386 10.6112 11.373 10.6955 11.375H15.75C16.3023 11.375 16.75 11.8227 16.75 12.375C16.75 12.9273 16.3023 13.375 15.75 13.375H10.6756C10.0677 13.3678 9.48675 13.123 9.05688 12.6931C8.62702 12.2632 8.38232 11.6823 8.37507 11.0744L8.37492 11.0625L8.37499 6C8.37499 5.44772 8.82271 5 9.37499 5Z" fill="#7E858D"/>
<path fill-rule="evenodd" clip-rule="evenodd" d="M10.3125 0.5H14.7201C15.0056 0.500398 15.2882 0.557276 15.5516 0.66736C15.815 0.777445 16.054 0.938559 16.2548 1.14142L16.2572 1.14386L21.3721 6.34538C21.3723 6.34562 21.3726 6.34587 21.3728 6.34612C21.7748 6.75344 22.0001 7.30272 22 7.875C22 7.87511 22 7.87489 22 7.875V15.9375C22 17.6032 20.6846 19 18.9867 19H16.125V17H18.9867C19.5294 17 20 16.5499 20 15.9375V7.875C20 7.82865 19.9818 7.78385 19.9492 7.75087L14.8336 2.54858C14.8334 2.54836 14.8338 2.5488 14.8336 2.54858C14.8185 2.53353 14.8 2.52089 14.7803 2.51268C14.7605 2.50439 14.7392 2.50008 14.7177 2.5H10.3159C10.034 2.50229 9.76416 2.61531 9.56473 2.81473C9.36531 3.01416 9.25229 3.28395 9.25 3.5659V6H7.25V3.55664C7.25474 2.74744 7.57832 1.97272 8.15052 1.40052C8.72272 0.828315 9.49744 0.504757 10.3066 0.500017L10.3125 0.5Z" fill="#7E858D"/>
<path fill-rule="evenodd" clip-rule="evenodd" d="M14.625 0.5C15.1773 0.5 15.625 0.947715 15.625 1.5V6.55453C15.627 6.63884 15.6614 6.7192 15.7211 6.7789C15.7808 6.8386 15.8612 6.87298 15.9455 6.875H21C21.5523 6.875 22 7.32272 22 7.875C22 8.42728 21.5523 8.875 21 8.875H15.9256C15.3177 8.86775 14.7368 8.62298 14.3069 8.19311C13.877 7.76324 13.6323 7.18231 13.6251 6.57443L13.6249 6.5625L13.625 1.5C13.625 0.947715 14.0727 0.5 14.625 0.5Z" fill="#7E858D"/>
</svg>
