<svg width="22" height="19" viewBox="0 0 22 19" fill="none" xmlns="http://www.w3.org/2000/svg">
<path fill-rule="evenodd" clip-rule="evenodd" d="M15.7071 7.29289C16.0976 7.68342 16.0976 8.31658 15.7071 8.70711L11.7071 12.7071C11.3166 13.0976 10.6834 13.0976 10.2929 12.7071L6.29289 8.70711C5.90237 8.31658 5.90237 7.68342 6.29289 7.29289C6.68342 6.90237 7.31658 6.90237 7.70711 7.29289L11 10.5858L14.2929 7.29289C14.6834 6.90237 15.3166 6.90237 15.7071 7.29289Z" fill="white"/>
<path fill-rule="evenodd" clip-rule="evenodd" d="M11 -4.37114e-08C11.5523 -1.95703e-08 12 0.447715 12 1L12 12C12 12.5523 11.5523 13 11 13C10.4477 13 10 12.5523 10 12L10 1C10 0.447715 10.4477 -6.78525e-08 11 -4.37114e-08Z" fill="white"/>
<path d="M1 14L1.621 16.485C1.72915 16.9177 1.97882 17.3018 2.33033 17.5763C2.68184 17.8508 3.11501 17.9999 3.561 18H18.439C18.885 17.9999 19.3182 17.8508 19.6697 17.5763C20.0212 17.3018 20.2708 16.9177 20.379 16.485L21 14" stroke="white" stroke-width="2" stroke-linecap="round" stroke-linejoin="round"/>
</svg>
