<svg width="19" height="19" viewBox="0 0 19 19" fill="none" xmlns="http://www.w3.org/2000/svg">
<path fill-rule="evenodd" clip-rule="evenodd" d="M15.0546 0.217319C15.4008 0.0739254 15.7718 0.00012207 16.1465 0.00012207C16.5212 0.00012207 16.8923 0.0739254 17.2384 0.217319C17.5846 0.360711 17.8992 0.570886 18.1641 0.835842C18.4291 1.1008 18.6393 1.41535 18.7826 1.76153C18.926 2.10771 18.9998 2.47875 18.9998 2.85345C18.9998 3.22815 18.926 3.59919 18.7826 3.94537C18.6393 4.29155 18.4291 4.6061 18.1641 4.87106L12.4371 10.5981C12.0014 11.0338 11.4476 11.3298 10.8443 11.4505C10.8442 11.4505 10.8443 11.4505 10.8443 11.4505L8.19627 11.9805C7.86844 12.0461 7.52949 11.9436 7.29304 11.7072C7.05658 11.4708 6.95389 11.1319 7.01939 10.804L7.54839 8.15605C7.66947 7.55267 7.96655 6.99778 8.40191 6.56284L14.1289 0.835842C14.3939 0.570888 14.7084 0.360713 15.0546 0.217319ZM16.1465 2.00012C16.0345 2.00012 15.9235 2.02219 15.82 2.06508C15.7164 2.10796 15.6224 2.17082 15.5431 2.25006L14.6368 3.15634L15.8439 4.36284L16.7499 3.45684C16.8291 3.3776 16.892 3.28353 16.9349 3.18C16.9778 3.07648 16.9998 2.96551 16.9998 2.85345C16.9998 2.74139 16.9778 2.63042 16.9349 2.52689C16.892 2.42336 16.8291 2.32929 16.7499 2.25006C16.6707 2.17082 16.5766 2.10796 16.4731 2.06508C16.3695 2.02219 16.2586 2.00012 16.1465 2.00012ZM14.4297 5.77706L13.2226 4.57055L9.81612 7.97706C9.66002 8.13294 9.55303 8.33202 9.50955 8.54829C9.50952 8.54843 9.50958 8.54816 9.50955 8.54829L9.27447 9.72503L10.4518 9.4894C10.6684 9.44607 10.8667 9.34009 11.0229 9.18384L14.4297 5.77706Z" fill="#7E858D"/>
<path fill-rule="evenodd" clip-rule="evenodd" d="M3 4C2.73478 4 2.48043 4.10536 2.29289 4.29289C2.10536 4.48043 2 4.73478 2 5V16C2 16.2652 2.10536 16.5196 2.29289 16.7071C2.48043 16.8946 2.73478 17 3 17H14C14.2652 17 14.5196 16.8946 14.7071 16.7071C14.8946 16.5196 15 16.2652 15 16V13C15 12.4477 15.4477 12 16 12C16.5523 12 17 12.4477 17 13V16C17 16.7957 16.6839 17.5587 16.1213 18.1213C15.5587 18.6839 14.7957 19 14 19H3C2.20435 19 1.44129 18.6839 0.87868 18.1213C0.31607 17.5587 0 16.7956 0 16V5C0 4.20435 0.31607 3.44129 0.87868 2.87868C1.44129 2.31607 2.20435 2 3 2H6C6.55228 2 7 2.44772 7 3C7 3.55228 6.55228 4 6 4H3Z" fill="#7E858D"/>
</svg>
