<svg width="17" height="10" viewBox="0 0 17 10" fill="none" xmlns="http://www.w3.org/2000/svg">
<path d="M1.79014 6.09833C1.71554 6.30201 1.56445 6.46858 1.36899 6.56263C1.17353 6.65669 0.949095 6.67082 0.743378 6.60203C0.53766 6.53324 0.366871 6.38695 0.267301 6.19424C0.16773 6.00153 0.147226 5.77759 0.210143 5.57C0.193477 5.62 0.210143 5.56833 0.210143 5.56833C0.23978 5.47657 0.274273 5.38644 0.313477 5.29833C0.380143 5.14 0.478477 4.92167 0.613477 4.66333C0.888477 4.14667 1.31681 3.45833 1.94848 2.77C3.22348 1.37833 5.31181 0 8.50014 0C11.6885 0 13.7768 1.37833 15.0518 2.77C15.7324 3.51663 16.2843 4.37101 16.6851 5.29833L16.7618 5.48667C16.7668 5.5 16.7835 5.58667 16.8001 5.67L16.8335 5.83333C16.8335 5.83333 16.9735 6.38833 16.2635 6.62333C16.0544 6.69316 15.8261 6.67729 15.6287 6.57921C15.4313 6.48112 15.2808 6.30881 15.2101 6.1V6.095L15.2001 6.06833C15.1164 5.85423 15.0207 5.64501 14.9135 5.44167C14.6171 4.88253 14.2509 4.36336 13.8235 3.89667C12.8068 2.78833 11.1451 1.66667 8.50014 1.66667C5.85514 1.66667 4.19348 2.78833 3.17681 3.89667C2.62638 4.50012 2.17876 5.18985 1.85181 5.93833C1.83432 5.98135 1.81766 6.02469 1.80181 6.06833L1.79014 6.09833ZM8.50014 3.33333C7.61609 3.33333 6.76824 3.68452 6.14312 4.30964C5.518 4.93476 5.16681 5.78261 5.16681 6.66667C5.16681 7.55072 5.518 8.39857 6.14312 9.02369C6.76824 9.64881 7.61609 10 8.50014 10C9.3842 10 10.232 9.64881 10.8572 9.02369C11.4823 8.39857 11.8335 7.55072 11.8335 6.66667C11.8335 5.78261 11.4823 4.93476 10.8572 4.30964C10.232 3.68452 9.3842 3.33333 8.50014 3.33333ZM6.83348 6.66667C6.83348 6.22464 7.00907 5.80072 7.32163 5.48816C7.63419 5.17559 8.05812 5 8.50014 5C8.94217 5 9.36609 5.17559 9.67865 5.48816C9.99121 5.80072 10.1668 6.22464 10.1668 6.66667C10.1668 7.10869 9.99121 7.53262 9.67865 7.84518C9.36609 8.15774 8.94217 8.33333 8.50014 8.33333C8.05812 8.33333 7.63419 8.15774 7.32163 7.84518C7.00907 7.53262 6.83348 7.10869 6.83348 6.66667Z" fill="#0077FF"/>
</svg>
