<svg width="24" height="24" viewBox="0 0 24 24" fill="none" xmlns="http://www.w3.org/2000/svg">
<path fill-rule="evenodd" clip-rule="evenodd" d="M5 8C4.73478 8 4.48043 8.10536 4.29289 8.29289C4.10536 8.48043 4 8.73478 4 9V18C4 18.2652 4.10536 18.5196 4.29289 18.7071C4.48043 18.8946 4.73478 19 5 19H19C19.2652 19 19.5196 18.8946 19.7071 18.7071C19.8946 18.5196 20 18.2652 20 18V9C20 8.73478 19.8946 8.48043 19.7071 8.29289C19.5196 8.10536 19.2652 8 19 8H5ZM2.87868 6.87868C3.44129 6.31607 4.20435 6 5 6H19C19.7957 6 20.5587 6.31607 21.1213 6.87868C21.6839 7.44129 22 8.20435 22 9V18C22 18.7957 21.6839 19.5587 21.1213 20.1213C20.5587 20.6839 19.7957 21 19 21H5C4.20435 21 3.44129 20.6839 2.87868 20.1213C2.31607 19.5587 2 18.7956 2 18V9C2 8.20435 2.31607 7.44129 2.87868 6.87868Z" fill="#7E858D"/>
<path d="M16.5 14C16.3674 14 16.2402 13.9473 16.1464 13.8536C16.0527 13.7598 16 13.6326 16 13.5C16 13.3674 16.0527 13.2402 16.1464 13.1464C16.2402 13.0527 16.3674 13 16.5 13C16.6326 13 16.7598 13.0527 16.8536 13.1464C16.9473 13.2402 17 13.3674 17 13.5C17 13.6326 16.9473 13.7598 16.8536 13.8536C16.7598 13.9473 16.6326 14 16.5 14Z" fill="#7E858D"/>
<path fill-rule="evenodd" clip-rule="evenodd" d="M16.5 13.75C16.5663 13.75 16.6299 13.7237 16.6768 13.6768C16.7237 13.6299 16.75 13.5663 16.75 13.5C16.75 13.4337 16.7237 13.3701 16.6768 13.3232C16.6299 13.2763 16.5663 13.25 16.5 13.25C16.4337 13.25 16.3701 13.2763 16.3232 13.3232C16.2763 13.3701 16.25 13.4337 16.25 13.5C16.25 13.5663 16.2763 13.6299 16.3232 13.6768C16.3701 13.7237 16.4337 13.75 16.5 13.75ZM15.6161 12.6161C15.8505 12.3817 16.1685 12.25 16.5 12.25C16.8315 12.25 17.1495 12.3817 17.3839 12.6161C17.6183 12.8505 17.75 13.1685 17.75 13.5C17.75 13.8315 17.6183 14.1495 17.3839 14.3839C17.1495 14.6183 16.8315 14.75 16.5 14.75C16.1685 14.75 15.8505 14.6183 15.6161 14.3839C15.3817 14.1495 15.25 13.8315 15.25 13.5C15.25 13.1685 15.3817 12.8505 15.6161 12.6161Z" fill="#7E858D"/>
<path fill-rule="evenodd" clip-rule="evenodd" d="M15.2275 2.70468C15.6717 2.5863 16.1373 2.5716 16.5881 2.66172C17.0389 2.75184 17.463 2.94437 17.8276 3.22445C18.1922 3.50452 18.4875 3.86465 18.6908 4.27701C18.8941 4.68937 18.9999 5.14294 19 5.60268V6.99996H17V5.60324C17 5.60314 17 5.60333 17 5.60324C16.9999 5.45008 16.9647 5.29872 16.8969 5.16135C16.8292 5.02389 16.7307 4.90385 16.6092 4.81049C16.4877 4.71713 16.3463 4.65296 16.196 4.62292C16.0458 4.59289 15.8907 4.59777 15.7426 4.6372C15.7426 4.63721 15.7427 4.63719 15.7426 4.6372L4.74264 7.5702C4.52966 7.62696 4.34127 7.75252 4.20699 7.9273C4.07272 8.10208 3.99995 8.31633 4 8.53674V8.99996H2V8.53718C2 8.53711 2 8.53725 2 8.53718C1.9999 7.87604 2.21821 7.23316 2.62098 6.70887C3.02378 6.18456 3.5885 5.808 4.22736 5.63772C4.22741 5.6377 4.22732 5.63773 4.22736 5.63772L15.2275 2.70468Z" fill="#7E858D"/>
</svg>
