<svg width="24" height="24" viewBox="0 0 24 24" fill="none" xmlns="http://www.w3.org/2000/svg">
<path fill-rule="evenodd" clip-rule="evenodd" d="M21.007 12.3008C20.8798 12.1953 20.6944 12.1995 20.5721 12.3106L17.5145 15.09C17.2916 16.0159 16.458 16.7039 15.4636 16.7039H11.9151C11.3628 16.7039 10.9151 16.2561 10.9151 15.7039C10.9151 15.1516 11.3628 14.7039 11.9151 14.7039H15.4636C15.5237 14.7039 15.5724 14.6555 15.5731 14.5956C15.5731 14.5952 15.5731 14.5948 15.5731 14.5944C15.5731 14.534 15.5241 14.4849 15.4636 14.4849H11.6512C11.3458 14.4849 11.0518 14.3693 10.8283 14.1612C9.64756 13.0619 7.74267 13.4 7.01252 14.8386L6.64949 15.5538L8.66128 17.6438C9.40783 17.3973 10.1904 17.271 10.9796 17.271H14.7338C16.1387 17.271 17.4788 16.68 18.4261 15.6426L21.0402 12.7798C21.1679 12.64 21.1528 12.4217 21.007 12.3008ZM8.40004 18.8144L8.80345 19.7294C9.48913 19.4271 10.2303 19.271 10.9796 19.271H14.7338C16.7007 19.271 18.5767 18.4436 19.903 16.9912L22.5171 14.1284C23.4148 13.1454 23.3086 11.6115 22.284 10.7615C21.39 10.0198 20.0863 10.0493 19.2268 10.8307L16.8426 12.998C16.4728 12.6783 15.9908 12.4849 15.4636 12.4849H11.9461C9.78191 10.7402 6.51187 11.4061 5.22909 13.9334L4.54431 15.2825C4.35167 15.6621 4.42039 16.122 4.71556 16.4286L7.67958 19.5079L8.40004 18.8144Z" fill="#7E858D"/>
<path fill-rule="evenodd" clip-rule="evenodd" d="M3.82805 17.4959L6.72921 20.494L7.70421 19.5505L4.80305 16.5524L3.82805 17.4959ZM1.71863 16.7541C1.32174 17.1381 1.31134 17.7712 1.6954 18.1681L5.98735 22.6034C6.37141 23.0003 7.00449 23.0107 7.40138 22.6266L9.81363 20.2924C10.2105 19.9083 10.2209 19.2752 9.83686 18.8783L5.5449 14.443C5.16085 14.0461 4.52777 14.0357 4.13088 14.4198L1.71863 16.7541Z" fill="#7E858D"/>
<path fill-rule="evenodd" clip-rule="evenodd" d="M11.5249 7.4582C11.5031 7.47465 11.4773 7.49629 11.4473 7.52412C10.8636 8.06516 10.1274 9.0206 9.67597 9.9872C9.45131 10.4683 9.32125 10.9016 9.29019 11.2524C9.2596 11.5979 9.329 11.789 9.41227 11.9001C9.74364 12.3419 9.65409 12.9687 9.21226 13.3001C8.77043 13.6314 8.14363 13.5419 7.81226 13.1C7.34453 12.4764 7.23892 11.7431 7.29798 11.076C7.35658 10.4143 7.58083 9.74696 7.86382 9.14097C8.42773 7.9334 9.32008 6.76886 10.0877 6.05735C10.3462 5.81774 10.911 5.36024 11.6787 5.45515C12.0729 5.5039 12.4954 5.6736 12.774 5.78549C12.8185 5.80339 12.8594 5.81981 12.8959 5.83402C13.2452 5.97002 13.4491 6.02484 13.6015 6.0232C13.8146 6.02089 14.0485 5.98709 14.3204 5.93319C14.4025 5.91692 14.5082 5.89419 14.6219 5.86973C14.8102 5.82924 15.0204 5.78402 15.1821 5.75551C15.6927 5.66544 16.7142 5.52663 17.3931 6.37535C17.9966 7.12965 18.6244 8.46162 19.051 9.62427C19.2696 10.2199 19.453 10.8185 19.5599 11.3309C19.613 11.5854 19.6528 11.8441 19.6623 12.084C19.6703 12.2872 19.6659 12.6289 19.5067 12.9473C19.2597 13.4412 18.659 13.6415 18.1651 13.3945C17.7131 13.1685 17.5071 12.6466 17.6644 12.1811C17.6643 12.1757 17.6641 12.1697 17.6638 12.1632C17.6603 12.0746 17.6427 11.9342 17.6021 11.7395C17.5215 11.3534 17.3716 10.8531 17.1735 10.3133C16.7831 9.24967 16.2711 8.20769 15.8799 7.68737C15.8245 7.68632 15.7173 7.69198 15.5295 7.7251C15.3827 7.75101 15.2613 7.77759 15.1204 7.80844C15.0048 7.83376 14.8761 7.86195 14.7093 7.89501C14.3933 7.95765 14.0189 8.0188 13.6231 8.02308C13.0451 8.02932 12.518 7.83312 12.1703 7.69775C12.1039 7.67188 12.0437 7.64827 11.9889 7.62679C11.7613 7.53756 11.627 7.48487 11.5249 7.4582ZM15.93 7.69224C15.9297 7.69249 15.9257 7.69196 15.9193 7.68991C15.9271 7.69097 15.9303 7.69199 15.93 7.69224ZM17.6632 12.224C17.663 12.2238 17.6632 12.2198 17.6642 12.2125C17.6638 12.2205 17.6633 12.2241 17.6632 12.224Z" fill="#7E858D"/>
<path fill-rule="evenodd" clip-rule="evenodd" d="M19.2293 2.27426C19.4972 2.57804 19.5554 3.01342 19.3767 3.3769L17.8096 6.56458C17.5659 7.06021 16.9666 7.26446 16.4709 7.0208C15.9753 6.77713 15.7711 6.17782 16.0147 5.68219L16.512 4.67071L15.8181 4.90963C15.4558 5.03439 15.054 4.94111 14.7837 4.66947L13.9589 3.84059L13.3058 4.41646C13.0431 4.64815 12.6782 4.72545 12.3441 4.62021L11.6354 4.39704L12.416 5.72753C12.6955 6.20389 12.5358 6.81661 12.0595 7.09608C11.5831 7.37554 10.9704 7.21593 10.6909 6.73958L8.59624 3.16913C8.38694 2.81236 8.41888 2.36356 8.6766 2.04003C8.93432 1.71651 9.36463 1.58504 9.75915 1.70929L12.4065 2.54302L13.3423 1.71782C13.739 1.36803 14.3395 1.38762 14.7125 1.76251L15.7594 2.81459L18.1537 1.99018C18.5367 1.85832 18.9614 1.97049 19.2293 2.27426Z" fill="#7E858D"/>
</svg>
