<svg width="24" height="24" viewBox="0 0 24 24" fill="none" xmlns="http://www.w3.org/2000/svg">
<path fill-rule="evenodd" clip-rule="evenodd" d="M21.0071 12.301C20.8799 12.1955 20.6944 12.1997 20.5721 12.3109L17.5146 15.0903C17.2916 16.0162 16.458 16.7041 15.4637 16.7041H11.9151C11.3628 16.7041 10.9151 16.2564 10.9151 15.7041C10.9151 15.1518 11.3628 14.7041 11.9151 14.7041H15.4637C15.5237 14.7041 15.5724 14.6558 15.5731 14.5959C15.5731 14.5955 15.5731 14.5951 15.5731 14.5946C15.5731 14.5342 15.5241 14.4852 15.4637 14.4852H11.6512C11.3458 14.4852 11.0518 14.3695 10.8283 14.1614C9.64759 13.0621 7.7427 13.4003 7.01255 14.8388L6.64953 15.5541L8.66131 17.6441C9.40786 17.3976 10.1904 17.2713 10.9797 17.2713H14.7339C16.1387 17.2713 17.4788 16.6802 18.4261 15.6428L21.0402 12.7801C21.1679 12.6402 21.1528 12.422 21.0071 12.301ZM8.40007 18.8147L8.80348 19.7297C9.48916 19.4274 10.2303 19.2713 10.9797 19.2713H14.7339C16.7007 19.2713 18.5768 18.4438 19.903 16.9914L22.5171 14.1287C23.4148 13.1456 23.3086 11.6118 22.284 10.7618C21.39 10.0201 20.0864 10.0496 19.2268 10.831L16.8426 12.9983C16.4728 12.6786 15.9908 12.4852 15.4637 12.4852H11.9461C9.78194 10.7405 6.5119 11.4063 5.22912 13.9336L4.54435 15.2828C4.3517 15.6623 4.42042 16.1222 4.7156 16.4289L7.67961 19.5082L8.40007 18.8147Z" fill="#0077FF"/>
<path fill-rule="evenodd" clip-rule="evenodd" d="M3.82805 17.4957L6.72921 20.4938L7.70421 19.5503L4.80305 16.5522L3.82805 17.4957ZM1.71863 16.7538C1.32174 17.1379 1.31134 17.771 1.6954 18.1678L5.98735 22.6032C6.37141 23.0001 7.00449 23.0105 7.40138 22.6264L9.81363 20.2921C10.2105 19.9081 10.2209 19.275 9.83686 18.8781L5.5449 14.4428C5.16085 14.0459 4.52777 14.0355 4.13088 14.4195L1.71863 16.7538Z" fill="#0077FF"/>
<path fill-rule="evenodd" clip-rule="evenodd" d="M11.5249 7.4582C11.5031 7.47465 11.4773 7.49629 11.4473 7.52412C10.8636 8.06516 10.1274 9.0206 9.67597 9.9872C9.45131 10.4683 9.32125 10.9016 9.29019 11.2524C9.2596 11.5979 9.329 11.789 9.41227 11.9001C9.74364 12.3419 9.65409 12.9687 9.21226 13.3001C8.77043 13.6314 8.14363 13.5419 7.81226 13.1C7.34453 12.4764 7.23892 11.7431 7.29798 11.076C7.35658 10.4143 7.58083 9.74696 7.86382 9.14097C8.42773 7.9334 9.32008 6.76886 10.0877 6.05735C10.3462 5.81774 10.911 5.36024 11.6787 5.45515C12.0729 5.5039 12.4954 5.6736 12.774 5.78549C12.8185 5.80339 12.8594 5.81981 12.8959 5.83402C13.2452 5.97002 13.4491 6.02484 13.6015 6.0232C13.8146 6.02089 14.0485 5.98709 14.3204 5.93319C14.4025 5.91692 14.5082 5.89419 14.6219 5.86973C14.8102 5.82924 15.0204 5.78402 15.1821 5.75551C15.6927 5.66544 16.7142 5.52663 17.3931 6.37535C17.9966 7.12965 18.6244 8.46162 19.051 9.62427C19.2696 10.2199 19.453 10.8185 19.5599 11.3309C19.613 11.5854 19.6528 11.8441 19.6623 12.084C19.6703 12.2872 19.6659 12.6289 19.5067 12.9473C19.2597 13.4412 18.659 13.6415 18.1651 13.3945C17.7131 13.1685 17.5071 12.6466 17.6644 12.1811C17.6643 12.1757 17.6641 12.1697 17.6638 12.1632C17.6603 12.0746 17.6427 11.9342 17.6021 11.7395C17.5215 11.3534 17.3716 10.8531 17.1735 10.3133C16.7831 9.24967 16.2711 8.20769 15.8799 7.68737C15.8245 7.68632 15.7173 7.69198 15.5295 7.7251C15.3827 7.75101 15.2613 7.77759 15.1204 7.80844C15.0048 7.83376 14.8761 7.86195 14.7093 7.89501C14.3933 7.95765 14.0189 8.0188 13.6231 8.02308C13.0451 8.02932 12.518 7.83312 12.1703 7.69775C12.1039 7.67188 12.0437 7.64827 11.9889 7.62679C11.7613 7.53756 11.627 7.48487 11.5249 7.4582ZM15.93 7.69224C15.9297 7.69249 15.9257 7.69196 15.9193 7.68991C15.9271 7.69097 15.9303 7.69199 15.93 7.69224ZM17.6632 12.224C17.663 12.2238 17.6632 12.2198 17.6642 12.2125C17.6638 12.2205 17.6633 12.2241 17.6632 12.224Z" fill="#0077FF"/>
<path fill-rule="evenodd" clip-rule="evenodd" d="M19.2293 2.27414C19.4972 2.57792 19.5554 3.0133 19.3767 3.37678L17.8096 6.56446C17.5659 7.06009 16.9666 7.26434 16.4709 7.02068C15.9753 6.77701 15.7711 6.1777 16.0147 5.68207L16.512 4.67059L15.8181 4.9095C15.4558 5.03426 15.054 4.94099 14.7837 4.66935L13.9589 3.84047L13.3058 4.41633C13.0431 4.64803 12.6782 4.72533 12.3441 4.62009L11.6354 4.39691L12.416 5.72741C12.6955 6.20377 12.5358 6.81649 12.0595 7.09595C11.5831 7.37542 10.9704 7.21581 10.6909 6.73946L8.59624 3.16901C8.38694 2.81224 8.41888 2.36344 8.6766 2.03991C8.93432 1.71638 9.36463 1.58492 9.75915 1.70917L12.4065 2.5429L13.3423 1.7177C13.739 1.36791 14.3395 1.3875 14.7125 1.76239L15.7594 2.81447L18.1537 1.99006C18.5367 1.8582 18.9614 1.97037 19.2293 2.27414Z" fill="#0077FF"/>
</svg>
