<svg width="20" height="19" viewBox="0 0 20 19" fill="none" xmlns="http://www.w3.org/2000/svg">
<path fill-rule="evenodd" clip-rule="evenodd" d="M3 6C2.73478 6 2.48043 6.10536 2.29289 6.29289C2.10536 6.48043 2 6.73478 2 7V16C2 16.2652 2.10536 16.5196 2.29289 16.7071C2.48043 16.8946 2.73478 17 3 17H17C17.2652 17 17.5196 16.8946 17.7071 16.7071C17.8946 16.5196 18 16.2652 18 16V7C18 6.73478 17.8946 6.48043 17.7071 6.29289C17.5196 6.10536 17.2652 6 17 6H3ZM0.87868 4.87868C1.44129 4.31607 2.20435 4 3 4H17C17.7957 4 18.5587 4.31607 19.1213 4.87868C19.6839 5.44129 20 6.20435 20 7V16C20 16.7957 19.6839 17.5587 19.1213 18.1213C18.5587 18.6839 17.7957 19 17 19H3C2.20435 19 1.44129 18.6839 0.87868 18.1213C0.31607 17.5587 0 16.7956 0 16V7C0 6.20435 0.31607 5.44129 0.87868 4.87868Z" fill="#0077FF"/>
<path d="M14.5 12C14.3674 12 14.2402 11.9473 14.1464 11.8536C14.0527 11.7598 14 11.6326 14 11.5C14 11.3674 14.0527 11.2402 14.1464 11.1464C14.2402 11.0527 14.3674 11 14.5 11C14.6326 11 14.7598 11.0527 14.8536 11.1464C14.9473 11.2402 15 11.3674 15 11.5C15 11.6326 14.9473 11.7598 14.8536 11.8536C14.7598 11.9473 14.6326 12 14.5 12Z" fill="#0077FF"/>
<path fill-rule="evenodd" clip-rule="evenodd" d="M14.5 11.75C14.5663 11.75 14.6299 11.7237 14.6768 11.6768C14.7237 11.6299 14.75 11.5663 14.75 11.5C14.75 11.4337 14.7237 11.3701 14.6768 11.3232C14.6299 11.2763 14.5663 11.25 14.5 11.25C14.4337 11.25 14.3701 11.2763 14.3232 11.3232C14.2763 11.3701 14.25 11.4337 14.25 11.5C14.25 11.5663 14.2763 11.6299 14.3232 11.6768C14.3701 11.7237 14.4337 11.75 14.5 11.75ZM13.6161 10.6161C13.8505 10.3817 14.1685 10.25 14.5 10.25C14.8315 10.25 15.1495 10.3817 15.3839 10.6161C15.6183 10.8505 15.75 11.1685 15.75 11.5C15.75 11.8315 15.6183 12.1495 15.3839 12.3839C15.1495 12.6183 14.8315 12.75 14.5 12.75C14.1685 12.75 13.8505 12.6183 13.6161 12.3839C13.3817 12.1495 13.25 11.8315 13.25 11.5C13.25 11.1685 13.3817 10.8505 13.6161 10.6161Z" fill="#0077FF"/>
<path fill-rule="evenodd" clip-rule="evenodd" d="M13.2275 0.704681C13.6717 0.586296 14.1373 0.571597 14.5881 0.66172C15.0389 0.751842 15.463 0.944375 15.8276 1.22445C16.1922 1.50452 16.4875 1.86465 16.6908 2.27701C16.8941 2.68937 16.9999 3.14294 17 3.60268V4.99996H15V3.60324C15 3.60314 15 3.60333 15 3.60324C14.9999 3.45008 14.9647 3.29872 14.8969 3.16135C14.8292 3.02389 14.7307 2.90385 14.6092 2.81049C14.4877 2.71713 14.3463 2.65296 14.196 2.62292C14.0458 2.59289 13.8907 2.59777 13.7426 2.6372C13.7426 2.63721 13.7427 2.63719 13.7426 2.6372L2.74264 5.5702C2.52966 5.62696 2.34127 5.75252 2.20699 5.9273C2.07272 6.10208 1.99995 6.31633 2 6.53674V6.99996H3.2774e-08V6.53718C3.2774e-08 6.53711 3.2774e-08 6.53725 3.2774e-08 6.53718C-9.76592e-05 5.87604 0.218206 5.23316 0.620985 4.70887C1.02378 4.18456 1.5885 3.808 2.22736 3.63772C2.22741 3.6377 2.22732 3.63773 2.22736 3.63772L13.2275 0.704681Z" fill="#0077FF"/>
</svg>
