<svg width="18" height="8" viewBox="0 0 18 8" fill="none" xmlns="http://www.w3.org/2000/svg">
<path d="M2.29014 6.09833C2.21554 6.30201 2.06445 6.46858 1.86899 6.56263C1.67353 6.65669 1.4491 6.67082 1.24338 6.60203C1.03766 6.53325 0.866871 6.38695 0.767301 6.19424C0.66773 6.00153 0.647226 5.77759 0.710143 5.57C0.693477 5.62 0.710143 5.56833 0.710143 5.56833C0.73978 5.47657 0.774273 5.38644 0.813477 5.29833C0.880143 5.14 0.978477 4.92167 1.11348 4.66333C1.38848 4.14667 1.81681 3.45833 2.44848 2.77C3.72348 1.37833 5.81181 0 9.00014 0C12.1885 0 14.2768 1.37833 15.5518 2.77C16.2324 3.51663 16.7843 4.37101 17.1851 5.29833L17.2618 5.48667C17.2668 5.5 17.2835 5.58667 17.3001 5.67L17.3335 5.83333C17.3335 5.83333 17.4735 6.38833 16.7635 6.62333C16.5544 6.69316 16.3261 6.67729 16.1287 6.57921C15.9313 6.48112 15.7808 6.30881 15.7101 6.1V6.095L15.7001 6.06833C15.6164 5.85423 15.5207 5.64501 15.4135 5.44167C15.1171 4.88253 14.7509 4.36336 14.3235 3.89667C13.3068 2.78833 11.6451 1.66667 9.00014 1.66667C6.35514 1.66667 4.69348 2.78833 3.67681 3.89667C3.12638 4.50012 2.67876 5.18985 2.35181 5.93833C2.33432 5.98135 2.31766 6.02469 2.30181 6.06833L2.29014 6.09833Z" fill="#0077FF"/>
<path fill-rule="evenodd" clip-rule="evenodd" d="M6 7C6 6.44772 6.44772 6 7 6H11C11.5523 6 12 6.44772 12 7C12 7.55228 11.5523 8 11 8H7C6.44772 8 6 7.55228 6 7Z" fill="#0077FF"/>
</svg>
