<svg width="24" height="24" viewBox="0 0 24 24" fill="none" xmlns="http://www.w3.org/2000/svg">
<path fill-rule="evenodd" clip-rule="evenodd" d="M19 18V10.1407C19 9.47203 18.6658 8.84757 18.1094 8.47664L13.1094 5.1433C12.4376 4.69544 11.5624 4.69544 10.8906 5.1433L5.8906 8.47664C5.3342 8.84757 5 9.47203 5 10.1407V18C5 19.1046 5.89543 20 7 20H17C18.1046 20 19 19.1046 19 18ZM4.7812 6.81254C3.6684 7.5544 3 8.80332 3 10.1407V18C3 20.2091 4.79086 22 7 22H17C19.2091 22 21 20.2091 21 18V10.1407C21 8.80332 20.3316 7.5544 19.2188 6.81254L14.2188 3.4792C12.8752 2.58347 11.1248 2.58347 9.7812 3.4792L4.7812 6.81254Z" fill="#7E858D"/>
<path fill-rule="evenodd" clip-rule="evenodd" d="M10.0913 15.3476C10.1107 15.3095 10.1286 15.2707 10.1448 15.2316C10.2457 14.9879 10.3936 14.7666 10.5801 14.5801C10.7665 14.3936 10.9879 14.2457 11.2315 14.1448C11.4752 14.0439 11.7363 13.9919 12 13.9919C12.2637 13.9919 12.5248 14.0439 12.7684 14.1448C13.012 14.2457 13.2334 14.3936 13.4199 14.5801C13.6063 14.7666 13.7543 14.9879 13.8552 15.2316C13.8714 15.2707 13.8892 15.3095 13.9086 15.3476C13.934 15.3975 13.9621 15.4463 13.9926 15.4933C14.179 15.7798 14.4588 16 14.7966 16L15.004 16C15.5541 16 16.0122 15.5474 15.8766 15.0143C15.8295 14.8289 15.769 14.6468 15.6955 14.4693C15.6851 14.4442 15.6745 14.4192 15.6636 14.3944C15.4638 13.9386 15.1806 13.5238 14.8284 13.1716C14.457 12.8001 14.016 12.5055 13.5307 12.3045C13.0454 12.1035 12.5253 12 12 12C11.4747 12 10.9545 12.1035 10.4692 12.3045C9.98394 12.5055 9.54298 12.8001 9.17155 13.1716C8.81931 13.5238 8.53613 13.9386 8.33637 14.3944C8.32548 14.4192 8.31484 14.4442 8.30445 14.4693C8.23093 14.6468 8.17046 14.8289 8.12333 15.0143C7.98778 15.5474 8.44589 16 8.99595 16L9.20336 16C9.5411 16 9.82094 15.7798 10.0073 15.4933C10.0379 15.4463 10.0659 15.3975 10.0913 15.3476Z" fill="#7E858D"/>
</svg>
