<svg width="24" height="24" viewBox="0 0 24 24" fill="none" xmlns="http://www.w3.org/2000/svg">
<path fill-rule="evenodd" clip-rule="evenodd" d="M19 18V10.1407C19 9.472 18.6658 8.84754 18.1094 8.47661L13.1094 5.14327C12.4376 4.69541 11.5624 4.69541 10.8906 5.14327L5.8906 8.47661C5.3342 8.84754 5 9.472 5 10.1407V18C5 19.1045 5.89543 20 7 20H17C18.1046 20 19 19.1045 19 18ZM4.7812 6.8125C3.6684 7.55437 3 8.80329 3 10.1407V18C3 20.2091 4.79086 22 7 22H17C19.2091 22 21 20.2091 21 18V10.1407C21 8.80329 20.3316 7.55437 19.2188 6.8125L14.2188 3.47917C12.8752 2.58344 11.1248 2.58344 9.7812 3.47917L4.7812 6.8125Z" fill="#0077FF"/>
<path fill-rule="evenodd" clip-rule="evenodd" d="M10.0913 15.3476C10.1107 15.3095 10.1286 15.2707 10.1448 15.2316C10.2457 14.9879 10.3936 14.7666 10.5801 14.5801C10.7666 14.3936 10.9879 14.2457 11.2316 14.1448C11.4752 14.0439 11.7363 13.9919 12 13.9919C12.2637 13.9919 12.5248 14.0439 12.7685 14.1448C13.0121 14.2457 13.2334 14.3936 13.4199 14.5801C13.6064 14.7666 13.7543 14.9879 13.8552 15.2316C13.8714 15.2707 13.8893 15.3095 13.9087 15.3476C13.934 15.3975 13.9621 15.4463 13.9927 15.4933C14.179 15.7798 14.4589 16 14.7966 16L15.004 16C15.5541 16 16.0122 15.5474 15.8766 15.0143C15.8295 14.8289 15.769 14.6468 15.6955 14.4693C15.6851 14.4442 15.6745 14.4192 15.6636 14.3944C15.4638 13.9386 15.1807 13.5238 14.8284 13.1716C14.457 12.8001 14.016 12.5055 13.5307 12.3045C13.0454 12.1035 12.5253 12 12 12C11.4747 12 10.9546 12.1035 10.4693 12.3045C9.98397 12.5055 9.54301 12.8001 9.17158 13.1716C8.81934 13.5238 8.53616 13.9386 8.3364 14.3944C8.32551 14.4192 8.31487 14.4442 8.30448 14.4693C8.23096 14.6468 8.17049 14.8289 8.12336 15.0143C7.98781 15.5474 8.44592 16 8.99598 16L9.2034 16C9.54113 16 9.82098 15.7798 10.0073 15.4933C10.0379 15.4463 10.066 15.3975 10.0913 15.3476Z" fill="#0077FF"/>
</svg>
