<svg width="24" height="24" viewBox="0 0 24 24" fill="none" xmlns="http://www.w3.org/2000/svg">
<path d="M12.22 19.85C12.04 20.03 11.72 20.06 11.51 19.85C11.4163 19.7556 11.3638 19.628 11.3638 19.495C11.3638 19.362 11.4163 19.2344 11.51 19.14L14.195 16.455C14.5844 16.0656 14.5844 15.4343 14.195 15.045C13.8056 14.6556 13.1744 14.6556 12.785 15.045L10.1 17.73C9.91 17.93 9.59 17.92 9.39 17.73C9.29632 17.6356 9.24375 17.508 9.24375 17.375C9.24375 17.242 9.29632 17.1144 9.39 17.02L12.075 14.335C12.4644 13.9456 12.4644 13.3143 12.075 12.925C11.6856 12.5356 11.0544 12.5356 10.665 12.925L7.98 15.61C7.8 15.79 7.48 15.82 7.27 15.61C7.17844 15.5145 7.12733 15.3873 7.12733 15.255C7.12733 15.1227 7.17844 14.9955 7.27 14.9L9.94999 12.22C10.3417 11.8282 10.3406 11.1928 9.94749 10.8025C9.55635 10.4141 8.92476 10.4152 8.53499 10.805L5.85 13.49C5.67 13.67 5.35 13.7 5.14 13.49C5.04844 13.3945 4.99733 13.2673 4.99733 13.135C4.99733 13.0027 5.04844 12.8755 5.14 12.78L8.81478 9.10517C9.20457 8.71539 9.83627 8.71454 10.2271 9.10328L11.39 10.26C12.34 11.21 13.98 11.2 14.93 10.26C15.91 9.27996 15.91 7.69996 14.93 6.71996L13.07 4.85996L13.35 4.57996C14.13 3.79996 15.4 3.79996 16.18 4.57996L20.42 8.81996C21.2 9.59996 21.2 10.87 20.42 11.65L12.22 19.85ZM21.83 13.07C22.5791 12.3186 22.9998 11.3009 22.9998 10.24C22.9998 9.17897 22.5791 8.16127 21.83 7.40996L17.59 3.16996C16.8387 2.42081 15.821 2.00012 14.76 2.00012C13.699 2.00012 12.6813 2.42081 11.93 3.16996L11.65 3.44996L11.37 3.16996C10.6187 2.42081 9.60098 2.00012 8.54 2.00012C7.47901 2.00012 6.46131 2.42081 5.71 3.16996L2.17 6.70996C1.4935 7.38415 1.08113 8.27854 1.00774 9.2308C0.966991 9.75946 1.03222 10.2865 1.19503 10.7825C1.40199 11.4131 2.19303 11.4769 2.6623 11.0077C2.9947 10.6753 3.04343 10.1647 3.00634 9.69603C2.99396 9.53961 2.99996 9.38138 3.02486 9.2246C3.09137 8.80578 3.28927 8.41895 3.59 8.11996L7.13 4.57996C7.91 3.79996 9.18 3.79996 9.96 4.57996L13.52 8.13996C13.7 8.31996 13.73 8.63996 13.52 8.84996C13.31 9.05996 12.99 9.02996 12.81 8.84996L10.933 6.97866C10.1521 6.20011 8.88834 6.20053 8.10793 6.97959L3.72 11.36C2.74 12.33 2.74 13.92 3.72 14.9C4.11 15.29 4.61 15.53 5.14 15.6C5.21002 16.1377 5.4559 16.6372 5.83935 17.0206C6.22279 17.4041 6.72227 17.6499 7.26 17.72C7.33002 18.2577 7.5759 18.7572 7.95935 19.1406C8.34279 19.5241 8.84227 19.7699 9.38 19.84C9.45 20.38 9.68999 20.87 10.08 21.26C10.55 21.73 11.18 21.99 11.85 21.99C12.52 21.99 13.15 21.73 13.62 21.26L21.83 13.07Z" fill="#7E858D"/>
</svg>
