<svg width="24" height="24" viewBox="0 0 24 24" fill="none" xmlns="http://www.w3.org/2000/svg">
<path d="M12.22 19.8498C12.04 20.0298 11.72 20.0598 11.51 19.8498C11.4163 19.7554 11.3637 19.6278 11.3637 19.4948C11.3637 19.3618 11.4163 19.2342 11.51 19.1398L14.195 16.4548C14.5843 16.0655 14.5843 15.4342 14.195 15.0448C13.8056 14.6555 13.1743 14.6555 12.785 15.0448L10.1 17.7298C9.90998 17.9298 9.58998 17.9198 9.38998 17.7298C9.2963 17.6354 9.24374 17.5078 9.24374 17.3748C9.24374 17.2418 9.2963 17.1142 9.38998 17.0198L12.075 14.3348C12.4643 13.9455 12.4643 13.3142 12.075 12.9248C11.6856 12.5355 11.0543 12.5355 10.665 12.9248L7.97998 15.6098C7.79998 15.7898 7.47998 15.8198 7.26998 15.6098C7.17843 15.5143 7.12731 15.3871 7.12731 15.2548C7.12731 15.1225 7.17843 14.9953 7.26998 14.8998L9.94998 12.2198C10.3417 11.8281 10.3406 11.1927 9.94747 10.8023C9.55633 10.414 8.92474 10.4151 8.53498 10.8048L5.84998 13.4898C5.66998 13.6698 5.34998 13.6998 5.13998 13.4898C5.04843 13.3943 4.99731 13.2671 4.99731 13.1348C4.99731 13.0025 5.04843 12.8753 5.13998 12.7798L8.81477 9.10505C9.20455 8.71527 9.83625 8.71442 10.2271 9.10316L11.39 10.2598C12.34 11.2098 13.98 11.1998 14.93 10.2598C15.91 9.27984 15.91 7.69984 14.93 6.71984L13.07 4.85984L13.35 4.57984C14.13 3.79984 15.4 3.79984 16.18 4.57984L20.42 8.81984C21.2 9.59984 21.2 10.8698 20.42 11.6498L12.22 19.8498ZM21.83 13.0698C22.5791 12.3185 22.9998 11.3008 22.9998 10.2398C22.9998 9.17885 22.5791 8.16115 21.83 7.40984L17.59 3.16984C16.8387 2.42069 15.821 2 14.76 2C13.699 2 12.6813 2.42069 11.93 3.16984L11.65 3.44984L11.37 3.16984C10.6187 2.42069 9.60097 2 8.53998 2C7.47899 2 6.46129 2.42069 5.70998 3.16984L2.16998 6.70984C1.49348 7.38403 1.08111 8.27842 1.00772 9.23068C0.966975 9.75934 1.03221 10.2864 1.19501 10.7824C1.40197 11.4129 2.19302 11.4768 2.66228 11.0075C2.99469 10.6751 3.04341 10.1645 3.00633 9.69591C2.99395 9.53949 2.99995 9.38126 3.02484 9.22447C3.09135 8.80566 3.28926 8.41883 3.58998 8.11984L7.12998 4.57984C7.90998 3.79984 9.17998 3.79984 9.95998 4.57984L13.52 8.13984C13.7 8.31984 13.73 8.63984 13.52 8.84984C13.31 9.05984 12.99 9.02984 12.81 8.84984L10.933 6.97853C10.1521 6.19999 8.88832 6.20041 8.10792 6.97947L3.71998 11.3598C2.73998 12.3298 2.73998 13.9198 3.71998 14.8998C4.10998 15.2898 4.60998 15.5298 5.13998 15.5998C5.21001 16.1376 5.45589 16.637 5.83933 17.0205C6.22277 17.4039 6.72225 17.6498 7.25998 17.7198C7.33001 18.2576 7.57589 18.757 7.95933 19.1405C8.34277 19.5239 8.84225 19.7698 9.37998 19.8398C9.44998 20.3798 9.68998 20.8698 10.08 21.2598C10.55 21.7298 11.18 21.9898 11.85 21.9898C12.52 21.9898 13.15 21.7298 13.62 21.2598L21.83 13.0698Z" fill="#0077FF"/>
</svg>
