<svg width="32" height="32" viewBox="0 0 32 32" fill="none" xmlns="http://www.w3.org/2000/svg">
<path fill-rule="evenodd" clip-rule="evenodd" d="M9.51294 8.15706C9.51294 7.42068 10.1099 6.82373 10.8463 6.82373H21.5542C22.2906 6.82373 22.8876 7.42068 22.8876 8.15706C22.8876 8.89344 22.2906 9.4904 21.5542 9.4904H10.8463C10.1099 9.4904 9.51294 8.89344 9.51294 8.15706Z" fill="#0077FF"/>
<path fill-rule="evenodd" clip-rule="evenodd" d="M9.51294 13.6473C9.51294 12.9109 10.1099 12.314 10.8463 12.314H21.5542C22.2906 12.314 22.8876 12.9109 22.8876 13.6473C22.8876 14.3837 22.2906 14.9806 21.5542 14.9806H10.8463C10.1099 14.9806 9.51294 14.3837 9.51294 13.6473Z" fill="#0077FF"/>
<path fill-rule="evenodd" clip-rule="evenodd" d="M9.51294 19.1375C9.51294 18.4012 10.1099 17.8042 10.8463 17.8042H21.5542C22.2906 17.8042 22.8876 18.4012 22.8876 19.1375C22.8876 19.8739 22.2906 20.4709 21.5542 20.4709H10.8463C10.1099 20.4709 9.51294 19.8739 9.51294 19.1375Z" fill="#0077FF"/>
<path fill-rule="evenodd" clip-rule="evenodd" d="M8 1.3335C5.79086 1.3335 4 3.12436 4 5.3335V24.0002C4 26.2093 5.79086 28.0002 8 28.0002H12.2392C12.7969 29.5505 14.3596 30.6668 16.2002 30.6668C18.0407 30.6668 19.6034 29.5505 20.1612 28.0002H23.9825C26.1916 28.0002 27.9825 26.2093 27.9825 24.0002V5.3335C27.9825 3.12436 26.1916 1.3335 23.9825 1.3335H8ZM20.1007 25.3335H23.9825C24.7188 25.3335 25.3158 24.7365 25.3158 24.0002V5.3335C25.3158 4.59711 24.7188 4.00016 23.9825 4.00016H8C7.26362 4.00016 6.66667 4.59712 6.66667 5.3335V24.0002C6.66667 24.7365 7.26362 25.3335 8 25.3335H12.2996C12.9037 23.8652 14.4223 22.8237 16.2002 22.8237C17.978 22.8237 19.4967 23.8652 20.1007 25.3335ZM15.2948 25.1799C15.0263 24.928 14.5909 24.928 14.3224 25.1799C14.0539 25.4319 14.0539 25.8403 14.3224 26.0923L15.228 26.942L14.5319 27.5951C14.2634 27.847 14.2634 28.2555 14.5319 28.5074C14.8005 28.7594 15.2358 28.7594 15.5043 28.5074L16.2004 27.8543L16.8966 28.5075C17.1651 28.7594 17.6004 28.7594 17.8689 28.5075C18.1374 28.2556 18.1374 27.8471 17.8689 27.5952L17.1727 26.942L18.0784 26.0922C18.3469 25.8403 18.3469 25.4318 18.0784 25.1799C17.8099 24.9279 17.3746 24.9279 17.1061 25.1799L16.2004 26.0297L15.2948 25.1799Z" fill="#0077FF"/>
</svg>
