<svg width="24" height="24" viewBox="0 0 24 24" fill="none" xmlns="http://www.w3.org/2000/svg">
<path fill-rule="evenodd" clip-rule="evenodd" d="M4.87868 2.87868C5.44129 2.31607 6.20435 2 7 2H15C15.5523 2 16 2.44772 16 3C16 3.55228 15.5523 4 15 4H7C6.73478 4 6.48043 4.10536 6.29289 4.29289C6.10536 4.48043 6 4.73478 6 5V19C6 19.2652 6.10536 19.5196 6.29289 19.7071C6.48043 19.8946 6.73478 20 7 20H15C15.5523 20 16 20.4477 16 21C16 21.5523 15.5523 22 15 22H7C6.20435 22 5.44129 21.6839 4.87868 21.1213C4.31607 20.5587 4 19.7957 4 19V5C4 4.20435 4.31607 3.44129 4.87868 2.87868ZM14.2929 8.70711C13.9024 8.31658 13.9024 7.68342 14.2929 7.29289C14.6834 6.90237 15.3166 6.90237 15.7071 7.29289L19.7071 11.2929C20.0976 11.6834 20.0976 12.3166 19.7071 12.7071L15.7071 16.7071C15.3166 17.0976 14.6834 17.0976 14.2929 16.7071C13.9024 16.3166 13.9024 15.6834 14.2929 15.2929L16.5858 13H9C8.44772 13 8 12.5523 8 12C8 11.4477 8.44772 11 9 11H16.5858L14.2929 8.70711Z" fill="#7E858D"/>
</svg>
