<svg width="48" height="48" viewBox="0 0 48 48" fill="none" xmlns="http://www.w3.org/2000/svg">
<path fill-rule="evenodd" clip-rule="evenodd" d="M24 6C14.0589 6 6 14.0589 6 24C6 33.9411 14.0589 42 24 42C33.9411 42 42 33.9411 42 24C42 14.0589 33.9411 6 24 6ZM2 24C2 11.8497 11.8497 2 24 2C36.1503 2 46 11.8497 46 24C46 36.1503 36.1503 46 24 46C11.8497 46 2 36.1503 2 24Z" fill="#DF2244"/>
<path fill-rule="evenodd" clip-rule="evenodd" d="M29.6567 16.3431C30.7613 16.3431 31.6567 17.2385 31.6567 18.3431L31.6567 29.6568C31.6567 30.7614 30.7613 31.6568 29.6567 31.6568L18.343 31.6568C17.2385 31.6568 16.343 30.7614 16.343 29.6568C16.343 28.5522 17.2385 27.6568 18.343 27.6568L27.6567 27.6568L27.6567 18.3431C27.6567 17.2385 28.5522 16.3431 29.6567 16.3431Z" fill="#DF2244"/>
<path fill-rule="evenodd" clip-rule="evenodd" d="M16.929 16.9289C17.7101 16.1478 18.9764 16.1478 19.7575 16.9289L31.0712 28.2426C31.8522 29.0236 31.8522 30.2899 31.0712 31.071C30.2901 31.852 29.0238 31.852 28.2428 31.071L16.929 19.7573C16.148 18.9762 16.148 17.7099 16.929 16.9289Z" fill="#DF2244"/>
</svg>
