<svg width="32" height="32" viewBox="0 0 32 32" fill="none" xmlns="http://www.w3.org/2000/svg">
<path fill-rule="evenodd" clip-rule="evenodd" d="M16 4.00016C13.0545 4.00016 10.6667 6.38798 10.6667 9.3335C10.6667 12.279 13.0545 14.6668 16 14.6668C18.9455 14.6668 21.3333 12.279 21.3333 9.3335C21.3333 6.38798 18.9455 4.00016 16 4.00016ZM8 9.3335C8 4.91522 11.5817 1.3335 16 1.3335C20.4183 1.3335 24 4.91522 24 9.3335C24 13.7518 20.4183 17.3335 16 17.3335C11.5817 17.3335 8 13.7518 8 9.3335Z" fill="#0077FF"/>
<path fill-rule="evenodd" clip-rule="evenodd" d="M25.3333 16C26.0697 16 26.6667 16.597 26.6667 17.3333V20H29.3333C30.0697 20 30.6667 20.597 30.6667 21.3333C30.6667 22.0697 30.0697 22.6667 29.3333 22.6667H26.6667V25.3333C26.6667 26.0697 26.0697 26.6667 25.3333 26.6667C24.597 26.6667 24 26.0697 24 25.3333V22.6667H21.3333C20.597 22.6667 20 22.0697 20 21.3333C20 20.597 20.597 20 21.3333 20H24V17.3333C24 16.597 24.597 16 25.3333 16ZM8.86482 20C8.21467 19.9997 7.58682 20.237 7.09934 20.6672C6.6119 21.0974 6.29838 21.6908 6.21773 22.3358C6.21772 22.3359 6.21774 22.3358 6.21773 22.3358L5.69773 26.5012C5.67428 26.6888 5.69099 26.8794 5.74678 27.0601C5.80257 27.2407 5.89614 27.4075 6.02129 27.5492C6.14644 27.6909 6.30031 27.8044 6.47267 27.8821C6.64504 27.9599 6.83196 28 7.02104 28H22.6667C23.403 28 24 28.597 24 29.3333C24 30.0697 23.403 30.6667 22.6667 30.6667H7.02162C7.02153 30.6667 7.02172 30.6667 7.02162 30.6667C6.45449 30.6667 5.89352 30.5462 5.37651 30.3131C4.85942 30.0799 4.39783 29.7395 4.02237 29.3143C3.64692 28.8891 3.3662 28.3889 3.19883 27.8469C3.03148 27.305 2.9813 26.7336 3.0516 26.1708C3.05161 26.1708 3.0516 26.1709 3.0516 26.1708L3.5716 22.0055C3.73284 20.7152 4.35992 19.5281 5.33488 18.6678C6.30971 17.8075 7.56521 17.333 8.86533 17.3333C8.8655 17.3333 8.86516 17.3333 8.86533 17.3333H9.33333C10.0697 17.3333 10.6667 17.9303 10.6667 18.6667C10.6667 19.403 10.0697 20 9.33333 20H8.86482Z" fill="#0077FF"/>
</svg>
