<svg width="48" height="48" viewBox="0 0 48 48" fill="none" xmlns="http://www.w3.org/2000/svg">
<path fill-rule="evenodd" clip-rule="evenodd" d="M24 6C14.0589 6 6 14.0589 6 24C6 33.9411 14.0589 42 24 42C33.9411 42 42 33.9411 42 24C42 14.0589 33.9411 6 24 6ZM2 24C2 11.8497 11.8497 2 24 2C36.1503 2 46 11.8497 46 24C46 36.1503 36.1503 46 24 46C11.8497 46 2 36.1503 2 24Z" fill="#00C67E"/>
<path fill-rule="evenodd" clip-rule="evenodd" d="M16.3431 18.3431C16.3431 17.2386 17.2386 16.3431 18.3431 16.3431L29.6568 16.3431C30.7614 16.3431 31.6568 17.2386 31.6568 18.3431L31.6568 29.6568C31.6568 30.7614 30.7614 31.6568 29.6568 31.6568C28.5523 31.6568 27.6568 30.7614 27.6568 29.6568L27.6568 20.3431L18.3431 20.3431C17.2386 20.3431 16.3431 19.4477 16.3431 18.3431Z" fill="#00C67E"/>
<path fill-rule="evenodd" clip-rule="evenodd" d="M16.9289 31.0711C16.1479 30.29 16.1479 29.0237 16.9289 28.2426L28.2426 16.9289C29.0237 16.1479 30.29 16.1479 31.0711 16.9289C31.8521 17.71 31.8521 18.9763 31.0711 19.7574L19.7574 31.0711C18.9763 31.8521 17.71 31.8521 16.9289 31.0711Z" fill="#00C67E"/>
</svg>
