<svg width="60" height="60" viewBox="0 0 60 60" fill="none" xmlns="http://www.w3.org/2000/svg">
<path fill-rule="evenodd" clip-rule="evenodd" d="M29.9998 6C16.745 6 5.99984 16.7452 5.99984 30C5.99984 43.2548 16.745 54 29.9998 54C43.2547 54 53.9998 43.2548 53.9998 30C53.9998 16.7452 43.2547 6 29.9998 6ZM0.666504 30C0.666504 13.7997 13.7995 0.666672 29.9998 0.666672C46.2002 0.666672 59.3332 13.7997 59.3332 30C59.3332 46.2004 46.2002 59.3333 29.9998 59.3333C13.7995 59.3333 0.666504 46.2004 0.666504 30Z" fill="#DF2244"/>
<path fill-rule="evenodd" clip-rule="evenodd" d="M37.5425 19.7909C39.0152 19.7909 40.2091 20.9848 40.2091 22.4575L40.2091 37.5425C40.2091 39.0152 39.0152 40.2091 37.5425 40.2091H22.4575C20.9848 40.2091 19.7909 39.0152 19.7909 37.5425C19.7909 36.0697 20.9848 34.8758 22.4575 34.8758L34.8758 34.8758L34.8758 22.4575C34.8758 20.9848 36.0697 19.7909 37.5425 19.7909Z" fill="#DF2244"/>
<path fill-rule="evenodd" clip-rule="evenodd" d="M20.5719 20.5719C21.6133 19.5305 23.3017 19.5305 24.3431 20.5719L39.4281 35.6569C40.4695 36.6983 40.4695 38.3867 39.4281 39.4281C38.3867 40.4695 36.6982 40.4695 35.6568 39.4281L20.5719 24.3431C19.5305 23.3018 19.5305 21.6133 20.5719 20.5719Z" fill="#DF2244"/>
</svg>
