<svg width="25" height="24" viewBox="0 0 25 24" fill="none" xmlns="http://www.w3.org/2000/svg">
<path fill-rule="evenodd" clip-rule="evenodd" d="M21.8 12.5998L23.3 10.5998H23.26C23.4744 10.314 23.52 9.93551 23.3796 9.60696C23.2393 9.27842 22.9343 9.0497 22.5796 9.00696C22.2249 8.96423 21.8744 9.11397 21.66 9.39979V9.45978C20.6624 5.88292 17.6741 3.21389 14.0077 2.62503C10.3413 2.03617 6.66752 3.63521 4.60001 6.71979C4.40173 7.0181 4.37765 7.39954 4.53686 7.72042C4.69607 8.04129 5.01437 8.25286 5.37186 8.27542C5.72935 8.29798 6.07173 8.1281 6.27001 7.82978C7.87408 5.46424 10.6832 4.21602 13.5139 4.611C16.3446 5.00598 18.7047 6.9755 19.6 9.68979C19.1582 9.35841 18.5314 9.44796 18.2 9.88978C17.8686 10.3316 17.9582 10.9584 18.4 11.2898L20.4 12.7898C20.4878 12.8495 20.5817 12.8998 20.68 12.9398C20.7839 12.971 20.8916 12.9878 21 12.9898H21.06C21.1906 12.98 21.3189 12.9497 21.44 12.8998C21.5821 12.8297 21.7055 12.7269 21.8 12.5998ZM18.93 15.8298C19.2117 15.3549 19.825 15.1982 20.3 15.4798H20.31C20.7529 15.7732 20.889 16.3617 20.62 16.8198C18.6763 20.0905 14.9687 21.8861 11.1973 21.3831C7.42603 20.8802 4.31857 18.1756 3.30001 14.5098V14.5698C3.08565 14.8556 2.73509 15.0053 2.38039 14.9626C2.02569 14.9199 1.72073 14.6912 1.58039 14.3626C1.44005 14.0341 1.48565 13.6556 1.70001 13.3698L3.20001 11.3698C3.27469 11.2741 3.36618 11.1927 3.47001 11.1298L3.57001 11.0798C3.6427 11.0428 3.72007 11.0159 3.80001 10.9998L3.92001 11.0098C3.99972 11.0002 4.0803 11.0002 4.16001 11.0098H4.32001C4.41836 11.0498 4.51221 11.1001 4.60001 11.1598L6.60001 12.6598C6.81218 12.8189 6.95245 13.0558 6.98996 13.3184C7.02746 13.5809 6.95914 13.8476 6.80001 14.0598C6.61115 14.3116 6.31476 14.4598 6.00001 14.4598C5.78364 14.4598 5.5731 14.3896 5.40001 14.2598H5.35001C6.23963 17.0743 8.69931 19.1039 11.6315 19.4428C14.5638 19.7818 17.4217 18.3671 18.93 15.8298Z" fill="white"/>
</svg>
