<svg width="32" height="32" viewBox="0 0 32 32" fill="none" xmlns="http://www.w3.org/2000/svg">
<path fill-rule="evenodd" clip-rule="evenodd" d="M1.33337 6.6665C1.33337 4.45736 3.12424 2.6665 5.33337 2.6665H26.6667C28.8758 2.6665 30.6667 4.45736 30.6667 6.6665V22.6665C30.6667 24.8756 28.8758 26.6665 26.6667 26.6665H5.33337C3.12424 26.6665 1.33337 24.8756 1.33337 22.6665V6.6665ZM5.33337 5.33317C4.59699 5.33317 4.00004 5.93012 4.00004 6.6665V22.6665C4.00004 23.4029 4.59699 23.9998 5.33337 23.9998H26.6667C27.4031 23.9998 28 23.4029 28 22.6665V6.6665C28 5.93012 27.4031 5.33317 26.6667 5.33317H5.33337Z" fill="#0077FF"/>
<path d="M21.3334 25.3333C21.3334 28.2789 18.9456 30.6667 16.0001 30.6667C13.0546 30.6667 10.6667 28.2789 10.6667 25.3333C10.6667 22.3878 13.0546 20 16.0001 20C18.9456 20 21.3334 22.3878 21.3334 25.3333Z" fill="#0077FF"/>
<path fill-rule="evenodd" clip-rule="evenodd" d="M13.7578 27.8044C13.4974 27.5441 13.4974 27.122 13.7578 26.8616L17.5286 23.0908C17.7889 22.8305 18.211 22.8305 18.4714 23.0908C18.7317 23.3512 18.7317 23.7733 18.4714 24.0336L14.7006 27.8044C14.4402 28.0648 14.0181 28.0648 13.7578 27.8044Z" fill="white"/>
<path fill-rule="evenodd" clip-rule="evenodd" d="M18.4714 27.8045C18.2111 28.0648 17.7889 28.0648 17.5286 27.8045L13.7578 24.0337C13.4975 23.7733 13.4975 23.3512 13.7578 23.0909C14.0182 22.8305 14.4403 22.8305 14.7006 23.0909L18.4714 26.8617C18.7318 27.122 18.7318 27.5441 18.4714 27.8045Z" fill="white"/>
<path d="M9.97921 15.3965C9.77387 15.3965 9.61521 15.3405 9.50321 15.2285C9.39121 15.1165 9.33521 14.9555 9.33521 14.7455V11.0495C9.33521 10.8395 9.39121 10.6785 9.50321 10.5665C9.61521 10.4545 9.77621 10.3985 9.98621 10.3985H11.7082C12.2682 10.3985 12.6999 10.5362 13.0032 10.8115C13.3112 11.0822 13.4652 11.4602 13.4652 11.9455C13.4652 12.3142 13.3719 12.6245 13.1852 12.8765C13.0032 13.1238 12.7372 13.2965 12.3872 13.3945C12.6485 13.4645 12.8585 13.6442 13.0172 13.9335L13.3672 14.5635C13.4419 14.7035 13.4745 14.8365 13.4652 14.9625C13.4605 15.0885 13.4115 15.1935 13.3182 15.2775C13.2249 15.3568 13.0872 15.3965 12.9052 15.3965C12.7232 15.3965 12.5739 15.3615 12.4572 15.2915C12.3452 15.2168 12.2449 15.0978 12.1562 14.9345L11.5192 13.7655C11.4632 13.6628 11.3909 13.5928 11.3022 13.5555C11.2182 13.5135 11.1202 13.4925 11.0082 13.4925H10.6232V14.7455C10.6232 14.9555 10.5672 15.1165 10.4552 15.2285C10.3479 15.3405 10.1892 15.3965 9.97921 15.3965ZM10.6232 12.5825H11.4772C11.9859 12.5825 12.2402 12.3818 12.2402 11.9805C12.2402 11.5838 11.9859 11.3855 11.4772 11.3855H10.6232V12.5825ZM14.9496 15.3335C14.5016 15.3335 14.2776 15.1118 14.2776 14.6685V11.0635C14.2776 10.6202 14.5016 10.3985 14.9496 10.3985H17.3226C17.6586 10.3985 17.8266 10.5618 17.8266 10.8885C17.8266 11.2245 17.6586 11.3925 17.3226 11.3925H15.5096V12.3305H17.1686C17.5046 12.3305 17.6726 12.4962 17.6726 12.8275C17.6726 13.1588 17.5046 13.3245 17.1686 13.3245H15.5096V14.3395H17.3226C17.6586 14.3395 17.8266 14.5052 17.8266 14.8365C17.8266 15.1678 17.6586 15.3335 17.3226 15.3335H14.9496ZM19.2214 15.3965C19.0161 15.3965 18.8574 15.3405 18.7454 15.2285C18.6334 15.1165 18.5774 14.9555 18.5774 14.7455V10.9865C18.5774 10.7765 18.6334 10.6155 18.7454 10.5035C18.8574 10.3915 19.0161 10.3355 19.2214 10.3355C19.4267 10.3355 19.5854 10.3915 19.6974 10.5035C19.8094 10.6155 19.8654 10.7765 19.8654 10.9865V12.5125H19.8794L21.5804 10.6365C21.6691 10.5432 21.7624 10.4708 21.8604 10.4195C21.9631 10.3635 22.0774 10.3355 22.2034 10.3355C22.3947 10.3355 22.5347 10.3868 22.6234 10.4895C22.7121 10.5875 22.7517 10.7042 22.7424 10.8395C22.7331 10.9748 22.6794 11.0962 22.5814 11.2035L21.1254 12.7435L22.6654 14.4865C22.7867 14.6218 22.8474 14.7595 22.8474 14.8995C22.8474 15.0395 22.7984 15.1585 22.7004 15.2565C22.6024 15.3498 22.4624 15.3965 22.2804 15.3965C22.1217 15.3965 21.9934 15.3662 21.8954 15.3055C21.7974 15.2402 21.6947 15.1445 21.5874 15.0185L19.8794 13.1075H19.8654V14.7455C19.8654 14.9555 19.8094 15.1165 19.6974 15.2285C19.5901 15.3405 19.4314 15.3965 19.2214 15.3965Z" fill="#0077FF"/>
</svg>
