<svg width="24" height="24" viewBox="0 0 24 24" fill="none" xmlns="http://www.w3.org/2000/svg">
<path fill-rule="evenodd" clip-rule="evenodd" d="M13 4H11C10.4477 4 10 4.44772 10 5C10 5.55228 10.4477 6 11 6H13C13.5523 6 14 5.55228 14 5C14 4.44772 13.5523 4 13 4ZM11 2C9.34315 2 8 3.34315 8 5C8 6.65685 9.34315 8 11 8H13C14.6569 8 16 6.65685 16 5C16 3.34315 14.6569 2 13 2H11Z" fill="#0077FF"/>
<path fill-rule="evenodd" clip-rule="evenodd" d="M9 11V13H15V11H9ZM8 9C7.44772 9 7 9.44772 7 10V14C7 14.5523 7.44772 15 8 15H16C16.5523 15 17 14.5523 17 14V10C17 9.44772 16.5523 9 16 9H8Z" fill="#0077FF"/>
<path fill-rule="evenodd" clip-rule="evenodd" d="M11 10.0953V6.76196H13V10.0953H11ZM2.42847 14.4762C2.42847 12.8194 3.77161 11.4762 5.42847 11.4762H8.66656V13.4762H5.42847C4.87618 13.4762 4.42847 13.924 4.42847 14.4762V18.6667H2.42847V14.4762ZM18.5713 13.4762H15.3332V11.4762H18.5713C20.2282 11.4762 21.5713 12.8194 21.5713 14.4762V18.6667H19.5713V14.4762C19.5713 13.924 19.1236 13.4762 18.5713 13.4762Z" fill="#0077FF"/>
<path fill-rule="evenodd" clip-rule="evenodd" d="M9.14293 20.1428C8.90623 20.1428 8.71436 20.3347 8.71436 20.5714C8.71436 20.8081 8.90623 21 9.14293 21C9.37962 21 9.5715 20.8081 9.5715 20.5714C9.5715 20.3347 9.37962 20.1428 9.14293 20.1428ZM6.71436 20.5714C6.71436 19.2301 7.80166 18.1428 9.14293 18.1428C10.4842 18.1428 11.5715 19.2301 11.5715 20.5714C11.5715 21.9127 10.4842 23 9.14293 23C7.80166 23 6.71436 21.9127 6.71436 20.5714Z" fill="#0077FF"/>
<path fill-rule="evenodd" clip-rule="evenodd" d="M14.857 20.1428C14.6203 20.1428 14.4285 20.3347 14.4285 20.5714C14.4285 20.8081 14.6203 21 14.857 21C15.0937 21 15.2856 20.8081 15.2856 20.5714C15.2856 20.3347 15.0937 20.1428 14.857 20.1428ZM12.4285 20.5714C12.4285 19.2301 13.5158 18.1428 14.857 18.1428C16.1983 18.1428 17.2856 19.2301 17.2856 20.5714C17.2856 21.9127 16.1983 23 14.857 23C13.5158 23 12.4285 21.9127 12.4285 20.5714Z" fill="#0077FF"/>
<path fill-rule="evenodd" clip-rule="evenodd" d="M20.5714 20.1428C20.3347 20.1428 20.1428 20.3347 20.1428 20.5714C20.1428 20.8081 20.3347 21 20.5714 21C20.8081 21 21 20.8081 21 20.5714C21 20.3347 20.8081 20.1428 20.5714 20.1428ZM18.1428 20.5714C18.1428 19.2301 19.2301 18.1428 20.5714 18.1428C21.9127 18.1428 23 19.2301 23 20.5714C23 21.9127 21.9127 23 20.5714 23C19.2301 23 18.1428 21.9127 18.1428 20.5714Z" fill="#0077FF"/>
<path fill-rule="evenodd" clip-rule="evenodd" d="M3.42857 20.1428C3.19188 20.1428 3 20.3347 3 20.5714C3 20.8081 3.19188 21 3.42857 21C3.66527 21 3.85714 20.8081 3.85714 20.5714C3.85714 20.3347 3.66527 20.1428 3.42857 20.1428ZM1 20.5714C1 19.2301 2.08731 18.1428 3.42857 18.1428C4.76983 18.1428 5.85714 19.2301 5.85714 20.5714C5.85714 21.9127 4.76983 23 3.42857 23C2.08731 23 1 21.9127 1 20.5714Z" fill="#0077FF"/>
<path fill-rule="evenodd" clip-rule="evenodd" d="M10 15.5V14.5H14V15.5C15.1046 15.5 16 16.3954 16 17.5V19H14V17.5C12.8954 17.5 12 16.6046 12 15.5C12 16.6046 11.1046 17.5 10 17.5V19H8V17.5C8 16.3954 8.89543 15.5 10 15.5Z" fill="#0077FF"/>
</svg>
