<svg width="24" height="24" viewBox="0 0 24 24" fill="none" xmlns="http://www.w3.org/2000/svg">
<path fill-rule="evenodd" clip-rule="evenodd" d="M11.25 5.125C7.86726 5.125 5.125 7.86726 5.125 11.25C5.125 14.6327 7.86726 17.375 11.25 17.375C14.6327 17.375 17.375 14.6327 17.375 11.25C17.375 7.86726 14.6327 5.125 11.25 5.125ZM3.125 11.25C3.125 6.76269 6.76269 3.125 11.25 3.125C15.7373 3.125 19.375 6.76269 19.375 11.25C19.375 13.1333 18.7343 14.8669 17.6589 16.2447L22.0821 20.6679C22.4726 21.0584 22.4726 21.6916 22.0821 22.0821C21.6916 22.4726 21.0584 22.4726 20.6679 22.0821L16.2447 17.6589C14.8669 18.7343 13.1333 19.375 11.25 19.375C6.76269 19.375 3.125 15.7373 3.125 11.25Z" fill="#0077FF"/>
</svg>
