<svg width="24" height="24" viewBox="0 0 24 24" fill="none" xmlns="http://www.w3.org/2000/svg">
<path fill-rule="evenodd" clip-rule="evenodd" d="M2 5C2 4.44772 2.44772 4 3 4H7C7.55228 4 8 4.44772 8 5C8 5.55228 7.55228 6 7 6H3C2.44772 6 2 5.55228 2 5ZM10 5C10 4.44772 10.4477 4 11 4H21C21.5523 4 22 4.44772 22 5C22 5.55228 21.5523 6 21 6H11C10.4477 6 10 5.55228 10 5ZM2 12C2 11.4477 2.44772 11 3 11H15C15.5523 11 16 11.4477 16 12C16 12.5523 15.5523 13 15 13H3C2.44772 13 2 12.5523 2 12ZM18 12C18 11.4477 18.4477 11 19 11H21C21.5523 11 22 11.4477 22 12C22 12.5523 21.5523 13 21 13H19C18.4477 13 18 12.5523 18 12ZM2 19C2 18.4477 2.44772 18 3 18H5C5.55228 18 6 18.4477 6 19C6 19.5523 5.55228 20 5 20H3C2.44772 20 2 19.5523 2 19ZM8 19C8 18.4477 8.44772 18 9 18H21C21.5523 18 22 18.4477 22 19C22 19.5523 21.5523 20 21 20H9C8.44772 20 8 19.5523 8 19Z" fill="#7E858D"/>
<path fill-rule="evenodd" clip-rule="evenodd" d="M9 4C8.44772 4 8 4.44772 8 5C8 5.55228 8.44772 6 9 6C9.55228 6 10 5.55228 10 5C10 4.44772 9.55228 4 9 4ZM6 5C6 3.34315 7.34315 2 9 2C10.6569 2 12 3.34315 12 5C12 6.65685 10.6569 8 9 8C7.34315 8 6 6.65685 6 5Z" fill="#7E858D"/>
<path fill-rule="evenodd" clip-rule="evenodd" d="M17 11C16.4477 11 16 11.4477 16 12C16 12.5523 16.4477 13 17 13C17.5523 13 18 12.5523 18 12C18 11.4477 17.5523 11 17 11ZM14 12C14 10.3431 15.3431 9 17 9C18.6569 9 20 10.3431 20 12C20 13.6569 18.6569 15 17 15C15.3431 15 14 13.6569 14 12Z" fill="#7E858D"/>
<path fill-rule="evenodd" clip-rule="evenodd" d="M7 18C6.44772 18 6 18.4477 6 19C6 19.5523 6.44772 20 7 20C7.55228 20 8 19.5523 8 19C8 18.4477 7.55228 18 7 18ZM4 19C4 17.3431 5.34315 16 7 16C8.65685 16 10 17.3431 10 19C10 20.6569 8.65685 22 7 22C5.34315 22 4 20.6569 4 19Z" fill="#7E858D"/>
</svg>
