<svg width="32" height="32" viewBox="0 0 32 32" fill="none" xmlns="http://www.w3.org/2000/svg">
<path fill-rule="evenodd" clip-rule="evenodd" d="M6.50495 3.83808C7.25509 3.08793 8.27251 2.6665 9.33337 2.6665H22.6667C23.7276 2.6665 24.745 3.08793 25.4951 3.83808C26.2453 4.58822 26.6667 5.60564 26.6667 6.6665V27.9998C26.6667 28.4751 26.4137 28.9145 26.0026 29.1531C25.5915 29.3916 25.0845 29.3933 24.6719 29.1575L20.6667 26.8688L16.6616 29.1575C16.2516 29.3917 15.7484 29.3917 15.3385 29.1575L11.3334 26.8688L7.32823 29.1575C6.91556 29.3933 6.40856 29.3916 5.99747 29.1531C5.58639 28.9145 5.33337 28.4751 5.33337 27.9998V6.6665C5.33337 5.60564 5.7548 4.58822 6.50495 3.83808ZM9.33337 5.33317C8.97975 5.33317 8.64061 5.47365 8.39056 5.72369C8.14052 5.97374 8.00004 6.31288 8.00004 6.6665V25.7023L10.6719 24.1755C11.0818 23.9413 11.585 23.9413 11.9949 24.1755L16 26.4642L20.0052 24.1755C20.4151 23.9413 20.9183 23.9413 21.3282 24.1755L24 25.7023V6.6665C24 6.31288 23.8596 5.97374 23.6095 5.72369C23.3595 5.47365 23.0203 5.33317 22.6667 5.33317H9.33337ZM11.2525 9.91896C11.6276 9.54388 12.1363 9.33317 12.6667 9.33317C13.1971 9.33317 13.7058 9.54388 14.0809 9.91896C14.456 10.294 14.6667 10.8027 14.6667 11.3332C14.6667 11.8636 14.456 12.3723 14.0809 12.7474C13.7058 13.1225 13.1971 13.3332 12.6667 13.3332C12.1363 13.3332 11.6276 13.1225 11.2525 12.7474C10.8774 12.3723 10.6667 11.8636 10.6667 11.3332C10.6667 10.8027 10.8774 10.294 11.2525 9.91896ZM19.0572 9.7237C19.5779 9.203 20.4221 9.203 20.9428 9.7237C21.4635 10.2444 21.4635 11.0886 20.9428 11.6093L12.9428 19.6093C12.4222 20.13 11.5779 20.13 11.0572 19.6093C10.5365 19.0886 10.5365 18.2444 11.0572 17.7237L19.0572 9.7237ZM17.9192 16.5856C18.2942 16.2105 18.8029 15.9998 19.3334 15.9998C19.8638 15.9998 20.3725 16.2105 20.7476 16.5856C21.1227 16.9607 21.3334 17.4694 21.3334 17.9998C21.3334 18.5303 21.1227 19.039 20.7476 19.4141C20.3725 19.7891 19.8638 19.9998 19.3334 19.9998C18.8029 19.9998 18.2942 19.7891 17.9192 19.4141C17.5441 19.039 17.3334 18.5303 17.3334 17.9998C17.3334 17.4694 17.5441 16.9607 17.9192 16.5856Z" fill="#0077FF"/>
<path d="M29.3334 25.3333C29.3334 28.2789 26.9456 30.6667 24.0001 30.6667C21.0546 30.6667 18.6667 28.2789 18.6667 25.3333C18.6667 22.3878 21.0546 20 24.0001 20C26.9456 20 29.3334 22.3878 29.3334 25.3333Z" fill="#0077FF"/>
<path fill-rule="evenodd" clip-rule="evenodd" d="M21.7578 27.8044C21.4974 27.5441 21.4974 27.122 21.7578 26.8616L25.5286 23.0908C25.7889 22.8305 26.211 22.8305 26.4714 23.0908C26.7317 23.3512 26.7317 23.7733 26.4714 24.0336L22.7006 27.8044C22.4402 28.0648 22.0181 28.0648 21.7578 27.8044Z" fill="white"/>
<path fill-rule="evenodd" clip-rule="evenodd" d="M26.4714 27.8045C26.2111 28.0648 25.7889 28.0648 25.5286 27.8045L21.7578 24.0337C21.4975 23.7733 21.4975 23.3512 21.7578 23.0909C22.0182 22.8305 22.4403 22.8305 22.7006 23.0909L26.4714 26.8617C26.7318 27.122 26.7318 27.5441 26.4714 27.8045Z" fill="white"/>
</svg>
