<svg width="25" height="24" viewBox="0 0 25 24" fill="none" xmlns="http://www.w3.org/2000/svg">
<path fill-rule="evenodd" clip-rule="evenodd" d="M3.61111 2H21.3889C22.0025 2 22.5 2.51167 22.5 3.14286V16.8571C22.5 17.4883 22.0025 18 21.3889 18H11.4556L7.1 21.7371C6.9001 21.9075 6.6485 22.0005 6.38889 22C6.22793 22.0009 6.0687 21.9658 5.92222 21.8971C5.52838 21.7097 5.2767 21.3035 5.27778 20.8571V18H3.61111C2.99746 18 2.5 17.4883 2.5 16.8571V3.14286C2.5 2.51167 2.99746 2 3.61111 2ZM11.0556 15.7143H20.2778V4.2857H4.72222V15.7143H6.38889C7.00254 15.7143 7.5 16.2259 7.5 16.8571V18.4228L10.3444 15.8971C10.3865 15.8697 10.4312 15.8468 10.4778 15.8285C10.5394 15.7819 10.6067 15.7434 10.6778 15.7143C10.7552 15.7034 10.8337 15.7034 10.9111 15.7143C10.9591 15.7078 11.0076 15.7078 11.0556 15.7143ZM16.9444 8.85714H8.05556C7.44191 8.85714 6.94444 8.34547 6.94444 7.71429C6.94444 7.08311 7.44191 6.57143 8.05556 6.57143H16.9444C17.5581 6.57143 18.0556 7.08311 18.0556 7.71429C18.0556 8.34547 17.5581 8.85714 16.9444 8.85714ZM11.3889 13.4286H16.9444C17.5581 13.4286 18.0556 12.9169 18.0556 12.2857C18.0556 11.6545 17.5581 11.1429 16.9444 11.1429H11.3889C10.7752 11.1429 10.2778 11.6545 10.2778 12.2857C10.2778 12.9169 10.7752 13.4286 11.3889 13.4286Z" fill="white"/>
</svg>
