<svg width="24" height="24" viewBox="0 0 24 24" fill="none" xmlns="http://www.w3.org/2000/svg">
<path fill-rule="evenodd" clip-rule="evenodd" d="M18.0546 2.21744C18.4008 2.07405 18.7718 2.00024 19.1465 2.00024C19.5212 2.00024 19.8923 2.07405 20.2384 2.21744C20.5846 2.36083 20.8992 2.57101 21.1641 2.83596C21.4291 3.10092 21.6393 3.41547 21.7826 3.76165C21.926 4.10783 21.9998 4.47887 21.9998 4.85357C21.9998 5.22827 21.926 5.59931 21.7826 5.94549C21.6393 6.29167 21.4291 6.60622 21.1641 6.87118L15.4371 12.5982C15.0014 13.0339 14.4476 13.3299 13.8443 13.4506C13.8442 13.4506 13.8443 13.4506 13.8443 13.4506L11.1963 13.9806C10.8684 14.0462 10.5295 13.9437 10.293 13.7073C10.0566 13.4709 9.95389 13.132 10.0194 12.8042L10.5484 10.1562C10.6695 9.55279 10.9666 8.99791 11.4019 8.56296L17.1289 2.83596C17.3939 2.57101 17.7084 2.36083 18.0546 2.21744ZM19.1465 4.00024C19.0345 4.00024 18.9235 4.02232 18.82 4.0652C18.7164 4.10808 18.6224 4.17094 18.5431 4.25018L17.6368 5.15646L18.8439 6.36297L19.7499 5.45696C19.8291 5.37773 19.892 5.28366 19.9349 5.18012C19.9778 5.0766 19.9998 4.96563 19.9998 4.85357C19.9998 4.74151 19.9778 4.63054 19.9349 4.52702C19.892 4.42349 19.8291 4.32942 19.7499 4.25018C19.6707 4.17094 19.5766 4.10808 19.4731 4.0652C19.3695 4.02232 19.2586 4.00024 19.1465 4.00024ZM17.4297 7.77718L16.2226 6.57068L12.8161 9.97718C12.66 10.1331 12.553 10.3321 12.5096 10.5484C12.5095 10.5485 12.5096 10.5483 12.5096 10.5484L12.2745 11.7252L13.4518 11.4895C13.6684 11.4462 13.8667 11.3402 14.0229 11.184L17.4297 7.77718Z" fill="white"/>
<path fill-rule="evenodd" clip-rule="evenodd" d="M6 6C5.73478 6 5.48043 6.10536 5.29289 6.29289C5.10536 6.48043 5 6.73478 5 7V18C5 18.2652 5.10536 18.5196 5.29289 18.7071C5.48043 18.8946 5.73478 19 6 19H17C17.2652 19 17.5196 18.8946 17.7071 18.7071C17.8946 18.5196 18 18.2652 18 18V15C18 14.4477 18.4477 14 19 14C19.5523 14 20 14.4477 20 15V18C20 18.7957 19.6839 19.5587 19.1213 20.1213C18.5587 20.6839 17.7957 21 17 21H6C5.20435 21 4.44129 20.6839 3.87868 20.1213C3.31607 19.5587 3 18.7956 3 18V7C3 6.20435 3.31607 5.44129 3.87868 4.87868C4.44129 4.31607 5.20435 4 6 4H9C9.55228 4 10 4.44772 10 5C10 5.55228 9.55228 6 9 6H6Z" fill="white"/>
</svg>
