<svg width="22" height="21" viewBox="0 0 22 21" fill="none" xmlns="http://www.w3.org/2000/svg">
<path fill-rule="evenodd" clip-rule="evenodd" d="M12 2H10C9.44772 2 9 2.44772 9 3C9 3.55228 9.44772 4 10 4H12C12.5523 4 13 3.55228 13 3C13 2.44772 12.5523 2 12 2ZM10 0C8.34315 0 7 1.34315 7 3C7 4.65685 8.34315 6 10 6H12C13.6569 6 15 4.65685 15 3C15 1.34315 13.6569 0 12 0H10Z" fill="#0077FF"/>
<path fill-rule="evenodd" clip-rule="evenodd" d="M8 9V11H14V9H8ZM7 7C6.44772 7 6 7.44772 6 8V12C6 12.5523 6.44772 13 7 13H15C15.5523 13 16 12.5523 16 12V8C16 7.44772 15.5523 7 15 7H7Z" fill="#0077FF"/>
<path fill-rule="evenodd" clip-rule="evenodd" d="M10.0001 8.09505V4.76172H12.0001V8.09505H10.0001ZM1.42856 12.476C1.42856 10.8192 2.7717 9.476 4.42856 9.476H7.66665V11.476H4.42856C3.87627 11.476 3.42856 11.9237 3.42856 12.476V16.6665H1.42856V12.476ZM17.5714 11.476H14.3333V9.476H17.5714C19.2283 9.476 20.5714 10.8192 20.5714 12.476V16.6665H18.5714V12.476C18.5714 11.9237 18.1237 11.476 17.5714 11.476Z" fill="#0077FF"/>
<path fill-rule="evenodd" clip-rule="evenodd" d="M8.14287 18.1431C7.90617 18.1431 7.71429 18.3349 7.71429 18.5716C7.71429 18.8083 7.90617 19.0002 8.14287 19.0002C8.37956 19.0002 8.57144 18.8083 8.57144 18.5716C8.57144 18.3349 8.37956 18.1431 8.14287 18.1431ZM5.71429 18.5716C5.71429 17.2304 6.8016 16.1431 8.14287 16.1431C9.48413 16.1431 10.5714 17.2304 10.5714 18.5716C10.5714 19.9129 9.48413 21.0002 8.14287 21.0002C6.8016 21.0002 5.71429 19.9129 5.71429 18.5716Z" fill="#0077FF"/>
<path fill-rule="evenodd" clip-rule="evenodd" d="M13.8571 18.1431C13.6204 18.1431 13.4286 18.3349 13.4286 18.5716C13.4286 18.8083 13.6204 19.0002 13.8571 19.0002C14.0938 19.0002 14.2857 18.8083 14.2857 18.5716C14.2857 18.3349 14.0938 18.1431 13.8571 18.1431ZM11.4286 18.5716C11.4286 17.2304 12.5159 16.1431 13.8571 16.1431C15.1984 16.1431 16.2857 17.2304 16.2857 18.5716C16.2857 19.9129 15.1984 21.0002 13.8571 21.0002C12.5159 21.0002 11.4286 19.9129 11.4286 18.5716Z" fill="#0077FF"/>
<path fill-rule="evenodd" clip-rule="evenodd" d="M19.5714 18.1431C19.3347 18.1431 19.1429 18.3349 19.1429 18.5716C19.1429 18.8083 19.3347 19.0002 19.5714 19.0002C19.8081 19.0002 20 18.8083 20 18.5716C20 18.3349 19.8081 18.1431 19.5714 18.1431ZM17.1429 18.5716C17.1429 17.2304 18.2302 16.1431 19.5714 16.1431C20.9127 16.1431 22 17.2304 22 18.5716C22 19.9129 20.9127 21.0002 19.5714 21.0002C18.2302 21.0002 17.1429 19.9129 17.1429 18.5716Z" fill="#0077FF"/>
<path fill-rule="evenodd" clip-rule="evenodd" d="M2.42857 18.1431C2.19188 18.1431 2 18.3349 2 18.5716C2 18.8083 2.19188 19.0002 2.42857 19.0002C2.66527 19.0002 2.85714 18.8083 2.85714 18.5716C2.85714 18.3349 2.66527 18.1431 2.42857 18.1431ZM0 18.5716C0 17.2304 1.08731 16.1431 2.42857 16.1431C3.76983 16.1431 4.85714 17.2304 4.85714 18.5716C4.85714 19.9129 3.76983 21.0002 2.42857 21.0002C1.08731 21.0002 0 19.9129 0 18.5716Z" fill="#0077FF"/>
<path fill-rule="evenodd" clip-rule="evenodd" d="M9 13.5V12.5H13V13.5C14.1046 13.5 15 14.3954 15 15.5V17H13V15.5C11.8954 15.5 11 14.6046 11 13.5C11 14.6046 10.1046 15.5 9 15.5V17H7V15.5C7 14.3954 7.89543 13.5 9 13.5Z" fill="#0077FF"/>
</svg>
