<svg width="22" height="22" viewBox="0 0 22 22" fill="none" xmlns="http://www.w3.org/2000/svg">
<path fill-rule="evenodd" clip-rule="evenodd" d="M11 5C11.5523 5 12 5.44772 12 6V12C12 12.5523 11.5523 13 11 13C10.4477 13 10 12.5523 10 12V6C10 5.44772 10.4477 5 11 5Z" fill="#0077FF"/>
<path fill-rule="evenodd" clip-rule="evenodd" d="M11.6827 15.2591C12.0913 15.6306 12.1214 16.2631 11.7499 16.6717L11.7399 16.6827C11.3684 17.0914 10.736 17.1215 10.3273 16.75C9.91867 16.3784 9.88857 15.746 10.2601 15.3373L10.2701 15.3263C10.6416 14.9177 11.2741 14.8876 11.6827 15.2591Z" fill="#0077FF"/>
<path fill-rule="evenodd" clip-rule="evenodd" d="M0 11C0 4.92472 4.92472 0 11 0C17.0753 0 22 4.92472 22 11C22 17.0753 17.0753 22 11 22C4.92472 22 0 17.0753 0 11ZM11 2C6.02928 2 2 6.02928 2 11C2 15.9707 6.02928 20 11 20C15.9707 20 20 15.9707 20 11C20 6.02928 15.9707 2 11 2Z" fill="#0077FF"/>
</svg>
