<svg width="18" height="18" viewBox="0 0 18 18" fill="none" xmlns="http://www.w3.org/2000/svg">
<path fill-rule="evenodd" clip-rule="evenodd" d="M9 4.5C9.41421 4.5 9.75 4.83579 9.75 5.25V9.75C9.75 10.1642 9.41421 10.5 9 10.5C8.58579 10.5 8.25 10.1642 8.25 9.75V5.25C8.25 4.83579 8.58579 4.5 9 4.5Z" fill="#7E858D"/>
<path fill-rule="evenodd" clip-rule="evenodd" d="M9.51202 12.1943C9.81851 12.473 9.84109 12.9473 9.56245 13.2538L9.55495 13.262C9.27631 13.5685 8.80197 13.5911 8.49549 13.3125C8.189 13.0338 8.16643 12.5595 8.44506 12.253L8.45256 12.2448C8.7312 11.9383 9.20554 11.9157 9.51202 12.1943Z" fill="#7E858D"/>
<path fill-rule="evenodd" clip-rule="evenodd" d="M0.75 9C0.75 4.44354 4.44354 0.75 9 0.75C13.5565 0.75 17.25 4.44354 17.25 9C17.25 13.5565 13.5565 17.25 9 17.25C4.44354 17.25 0.75 13.5565 0.75 9ZM9 2.25C5.27196 2.25 2.25 5.27196 2.25 9C2.25 12.728 5.27196 15.75 9 15.75C12.728 15.75 15.75 12.728 15.75 9C15.75 5.27196 12.728 2.25 9 2.25Z" fill="#7E858D"/>
</svg>
